<svg width="766" height="856" viewBox="0 0 766 856" fill="none" xmlns="http://www.w3.org/2000/svg" id="svgMain" preserveAspectRatio="xMinYMin meet" class="svg-content">
    <g id="southPyongang" style="fill: rgb(237, 166, 151);">
        
        <path d="M348.484 449.246L347.877 448.141L346.745 446.981L342.382 444.22L341.222 443.226L340.559 441.735L340.062 439.554L339.565 435.218V435.025L339.869 434.031L340.532 432.402L340.753 431.573L340.835 430.773L340.725 429.999L340.476 429.199L339.897 428.26L334.291 422.737L333.297 421.992L331.723 421.246L329.569 420.556L327.995 420.307L317.337 420.583H317.226L314.465 426.713L312.698 428.95L308.307 432.678L307.423 433.81L306.844 434.666L305.877 438.118L305.104 440.133L304.276 441.155L303.364 441.652L301.459 441.818L299.747 442.204L298.808 442.563L297.842 443.116L296.268 444.331L295.108 445.628L293.644 447.589L292.678 448.555L291.794 449.163L289.171 449.715L288.149 450.074L287.073 450.682L279.645 456.011L278.292 457.198L277.353 458.275L277.021 459.076L276.773 459.932L276.359 462.887L276.11 464.074L275.42 465.593L274.564 466.394L273.68 466.835L270.201 467.056L268.848 467.664L261.917 472.579L260.453 473.214H259.542L258.658 472.993L257.858 472.689L252.749 469.183L251.12 471.806L251.065 471.971L250.789 473.021L250.54 474.788L250.402 476.638L250.568 477.549L250.872 478.378L253.329 482.63L253.716 483.569L253.909 484.48L253.992 485.419V486.358L253.799 487.242L253.108 488.07L251.948 488.871L249.27 489.892L241.014 494.338L222.43 499.253L221.463 499.309L220.58 499.143L219.751 498.867L218.951 498.48L217.321 497.431L216.631 496.796L213.815 493.703L213.152 493.427H212.462L211.688 494.338L211.247 495.194L210.97 496.161L210.86 496.961L210.722 497.541L210.418 497.817L209.755 498.287L208.182 499.088L206.828 500.579L205.448 503.009L204.509 504.251L202.245 506.212L200.118 508.504L199.29 509.249L198.268 509.802L194.513 510.547L193.85 511.32L193.629 511.845L193.574 512.314V512.701L193.326 513.585L192.746 514.579L188.852 519.659L183.33 523.581L176.123 527.17L174.079 527.805L172.008 527.75L169.578 527.308L168.639 527.391L167.728 527.778L165.353 529.794L159.389 533.3L152.568 536.089L146.411 537.028L146.494 537.222L146.328 539.237L145.361 540.811L142.048 542.164L141.219 543.876L140.75 545.975L140.115 547.797L138.016 550.144L135.78 551.912L134.095 554.204L133.681 558.152L134.758 557.572L135.945 557.186L137.216 557.02L138.513 557.131L135.752 561.245L135.421 563.426L137.685 564.365L144.947 565.497H147.377L146.797 567.099L145.803 568.231L143.318 569.722L142.683 569.198L142.186 568.977L140.999 568.562L142.02 570.109L142.573 570.633L141.744 573.284L142.352 575.273L143.87 576.488L145.72 576.736L144.202 578.227L139.728 586.539L140.004 587.947L141.054 589.107L141.772 591.399L139.204 590.432L136.415 590.349L133.902 591.564L132.19 594.519L132.549 595.789L133.488 597.142L133.874 598.219L132.521 598.661L129.594 598.744L128.379 599.324L127.275 600.704L128.103 601.45L127.965 602.03L127.468 602.692L127.247 603.797L127.33 605.04L127.109 606.006L127.606 606.89V607.911L127.192 609.043L126.888 610.176L132.853 611.087L130.616 611.667L127.689 611.529H125.314L124.044 613.655L123.105 616.168L120.924 619.15L118.439 623.43L116.865 625.749L117.141 627.379L115.871 629.891L113.882 632.846L112.778 636.353L111.425 639.943L111.287 642.483L110.928 648.116L110.431 650.629L109.713 653.169L110.652 657.146L112.005 658.333L113.8 659.244L114.324 661.039L115.677 662.945L119.018 662.779L120.648 657.947L120.04 654.329L121.89 654.771L123.271 656.207L123.878 657.947L123.602 658.692L123.354 659.355L124.127 659.99L124.955 660.459L122.636 663.221L122.249 664.491L122.995 666.148L124.486 667.556L126.253 668.246H128.131L129.843 667.666V666.727L129.263 666.258L128.628 665.457L128.379 664.518L128.987 663.607H129.622L130.091 664.325L130.367 665.209L130.588 665.651L133.681 666.175L134.758 665.595L135.448 663.607H136.249L137.436 665.706L139.314 666.175L142.821 664.408L144.561 663.276L143.815 662.171L142.904 661.26L141.827 660.515L143.429 660.376L144.312 659.3L144.754 658.057L145.085 657.422L146.135 657.173V657.339L146.052 658.029L149.089 663.607L149.807 664.601L151.188 665.319H153.977L155.468 665.623L157.346 667.086L162.647 673.796L163.89 674.404L166.265 674.514L167.452 674.873L165.989 670.455L165.768 666.589L165.547 665.457L165.133 664.629L162.979 662.447L161.653 660.763L161.129 659.548L160.852 658.609L160.991 656.649L160.107 653.943L159.417 653.335L158.34 652.617L156.849 651.872L156.048 651.209L155.468 650.38L155.137 649.414L154.805 647.923V646.791L155.026 645.824L155.413 645.106L155.91 644.554L156.517 644.14L160.135 642.87L161.377 642.069L161.957 641.102L162.537 639.749L164.387 632.957L164.442 632.045V631.355L163.614 628.759L163.006 627.351L162.178 626.191L161.598 623.927L161.018 615.56L161.073 614.98L161.239 614.345L161.432 613.903L161.902 613.241L170.407 606.393L170.628 606.282L171.069 605.978L171.539 605.509L171.649 605.26L171.704 604.984L171.649 604.736L171.566 604.543L171.456 604.404L171.042 604.045L170.131 603.548L168.336 602.195L168.142 601.975L167.977 601.643L167.921 601.339V601.008L168.087 600.124L168.17 599.848L168.639 597.501L168.722 596.866V596.065L168.639 595.568L168.529 595.016L167.369 591.758L166.403 589.99L166.209 589.466V588.886V588.251L166.265 587.975L166.375 587.726L166.486 587.505L167.065 586.787L167.507 586.428L172.34 584.771L175.846 582.424L176.702 581.568L177.117 581.292L177.614 581.099L178.166 580.988L178.884 581.347L179.933 582.038L183.551 585.268L183.689 585.462L184.158 586.345L184.268 586.566L185.152 588.113L185.566 588.693L185.925 589.079L186.339 589.328L187.057 589.631L190.62 590.653L190.979 590.929L191.365 591.343L192.055 592.282L192.359 592.779L192.552 593.194L192.911 594.215L193.547 596.479L193.795 598.053L193.933 598.606L194.209 599.351L194.458 599.545L194.817 599.655L195.507 599.572L195.811 599.351L195.976 599.075V598.771V597.777L195.59 595.458L195.535 594.823V594.188L195.618 593.884L195.921 592.752L196.308 591.758L196.556 591.316L197.302 590.349L198.158 589.521L198.6 589.19L199.069 588.996L201.278 588.472H201.858L202.466 588.527L203.266 588.831L204.15 589.272L205.144 590.322L206.967 592.558L207.464 592.973L212.075 592.089L213.373 591.509L213.815 591.067L214.118 590.846L214.312 590.57L214.45 590.322L214.643 589.742L214.892 589.162L215.112 588.886L215.361 588.665L215.665 588.582H215.968L216.907 588.72L217.598 588.941L218.15 589.466L218.813 590.294L219.972 592.255L220.414 593.221L220.663 593.967L220.746 594.712L220.856 595.071L220.994 595.375L221.187 595.679L221.519 595.982L221.988 596.231L222.927 596.369L226.82 596.148L227.4 596.562L229.941 599.158L231.294 600.262H231.542L232.26 600.318L235.767 599.876H236.872L237.534 600.097L237.921 600.566L238.335 601.367L238.915 603.355L239.025 604.349V605.205L238.749 605.978L238.639 606.669L238.694 607.58L238.805 608.077L238.943 608.574L239.274 609.485L240.572 611.225L243.499 614.18L244.272 614.704L249.27 615.615L250.043 615.892L250.375 616.14L250.872 617.024L253.881 623.651L253.964 623.761L254.599 624.866L255.345 626.495L255.649 628.29L255.952 634.254L264.209 637.043L265.562 637.154L267.439 637.043L268.157 636.436L268.71 635.773L268.986 635.138L269.096 634.613L269.152 634.116V633.536L269.041 632.515L268.793 631.217L268.296 629.753L267.522 628.29L267.412 627.296L267.688 626.164L269.069 624.341L270.035 623.706L270.919 623.485L271.72 623.789L277.546 627.572L279.037 627.793H281.08L285.333 627.351L286.99 626.716L287.873 625.97L287.735 625.225L287.514 624.562L287.1 623.761L286.189 622.712L285.14 621.166L284.698 620.31L284.366 619.537L283.648 617.134L283.29 616.389L282.792 615.671L280.059 612.937L279.562 612.164L279.203 611.391L278.65 609.789L278.236 608.961L276.69 606.558L276.359 605.785L276.138 604.957L276 604.101V602.969L276.303 601.698L277.077 599.821L278.209 598.799L279.148 598.633L280.004 599.186L281.798 601.56L282.489 602.251L283.29 602.775L284.173 603.189L285.057 603.438L286.962 603.493L288.702 603.245L294.28 601.754H295.191L296.13 601.892L297.013 602.251L298.366 603.051L300.134 604.598L300.934 605.095L301.735 605.426L305.463 606.061L307.175 606.807L308.915 607.801L314.962 612.827L316.563 613.876L319.076 614.29L325.621 613.434L327.001 607.166L329.348 603.714L330.26 603.079L334.208 601.036L334.843 600.401L335.175 599.655L334.871 598.385L334.457 597.446L330.701 593.055L328.189 591.702L327.664 591.509L327.029 591.371L325.317 591.316L322.003 591.979H321.147L320.291 591.785L319.49 591.371L318.911 590.681L318.772 589.825L319.021 588.665L319.573 586.87L319.684 585.848L319.573 584.661L319.104 583.115L318.524 582.065L317.806 581.292L317.088 580.878L316.26 580.629L315.376 580.547L314.492 580.602L313.636 580.85L312.863 581.347L311.593 582.728L310.903 583.142L310.24 583.087L309.743 582.535L309.439 581.762L309.053 580.105L308.777 579.332L308.445 578.559L307.948 577.841L307.368 577.261L306.816 576.874L306.457 576.681L305.96 576.515L305.546 576.432L303.917 576.349L303.033 576.515L302.232 576.764L298.394 578.641L297.759 578.779L297.013 578.835L296.13 578.752L295.274 578.42L294.445 577.896L293.672 577.123L293.092 576.322L292.623 575.466L292.319 574.665V572.843L292.706 570.247L295.136 560.306L296.903 555.64L297.096 554.701V553.596L296.544 551.995L295.881 550.973L295.108 550.172L294.28 549.565L291.38 546.886L290.165 545.367L289.696 544.539L289.392 543.738V542.523L289.613 540.949L290.662 538.16L291.518 536.752L292.402 535.703L293.147 535.068L293.755 534.184L294.141 533.052L294.197 531.34L294.086 530.18L293.838 529.214L292.927 526.811L292.844 525.79L293.065 524.657L293.893 523.111L298.422 518.196L298.725 517.533L298.836 516.732L298.56 515.711L298.173 515.297L297.51 515.076L296.682 514.965L295.826 514.744L295.163 514.33L294.804 513.419L295.025 512.176L296.599 508.973L298.56 506.101L298.946 505.301L299.305 504.417L300.907 498.839L301.487 497.514L302.177 496.492L302.895 495.829L303.668 495.277L304.496 494.78L306.07 494.173L312.56 492.516H320.07L321.865 492.875L323.412 493.482L324.102 493.896L324.82 494.531L325.372 495.305L326.891 497.845L327.443 498.397L327.912 498.563H328.63L329.376 498.204L330.094 497.679L331.088 496.382L331.778 495.885L332.662 495.664L337.329 495.277L338.074 494.918L338.764 494.366L339.317 493.62L339.731 492.902L340.421 491.384L340.697 490.472L340.863 489.478L340.697 487.932L340.2 486.496L336.721 480.117L336.224 478.764L334.816 472.745L334.484 470.756L334.429 469.9L334.512 469.044L335.009 468.354L335.755 468.023L336.638 467.802L337.329 467.443L337.715 466.67L337.66 465.62L337.384 464.046V462.914L337.632 462.003L338.102 461.34L338.571 460.871L346.634 454.382L347.822 452.863L348.208 452.09L348.429 451.262L348.484 450.35V449.439V449.246ZM94.4979 674.984L94.0009 674.653L92.9516 672.968L92.206 672.554V673.382L92.4269 674.211L92.2888 674.735L91.9022 675.094L91.5709 675.729L91.8746 676.503L93.1448 676.668L94.0561 676.475L93.9456 677.082L93.2277 677.966L92.9239 678.104L92.565 677.662H91.8746L91.2119 678.574V679.816L91.7918 680.203L94.4979 678.159L95.5196 676.641L95.989 674.763L95.4644 674.542L94.5531 675.011L94.4979 674.984Z" stroke="#F5F5F4" stroke-width="1.5" stroke-linecap="round" stroke-linejoin="round" style="opacity: 1;"></path>
        <path d="M221.822 543.35V544.03H223.762V543.35H221.822ZM221.822 544.97V545.65H223.762V544.97H221.822ZM216.962 542.42V543.1H221.722V542.42H216.962ZM216.812 546.78C218.282 546.78 220.312 546.76 222.052 546.48L222.002 545.86C220.312 546.06 218.202 546.08 216.722 546.08L216.812 546.78ZM217.862 542.95V546.31H218.662V542.95H217.862ZM220.022 542.95V546.31H220.822V542.95H220.022ZM223.302 541.74V547.32H224.132V541.74H223.302ZM221.162 547.5C219.282 547.5 218.142 548.09 218.142 549.13C218.142 550.17 219.282 550.76 221.162 550.76C223.032 550.76 224.172 550.17 224.172 549.13C224.172 548.09 223.032 547.5 221.162 547.5ZM221.162 548.15C222.532 548.15 223.352 548.51 223.352 549.13C223.352 549.75 222.532 550.12 221.162 550.12C219.792 550.12 218.972 549.75 218.972 549.13C218.972 548.51 219.792 548.15 221.162 548.15ZM231.681 541.73V548.39H232.511V541.73H231.681ZM232.251 544.48V545.17H233.851V544.48H232.251ZM226.881 549.9V550.58H232.921V549.9H226.881ZM226.881 547.71V550.17H227.711V547.71H226.881ZM228.021 542.37C226.671 542.37 225.661 543.3 225.661 544.6C225.661 545.91 226.671 546.83 228.021 546.83C229.371 546.83 230.381 545.91 230.381 544.6C230.381 543.3 229.371 542.37 228.021 542.37ZM228.021 543.1C228.901 543.1 229.571 543.72 229.571 544.6C229.571 545.49 228.901 546.1 228.021 546.1C227.141 546.1 226.471 545.49 226.471 544.6C226.471 543.72 227.141 543.1 228.021 543.1ZM240.48 541.74V546.85H241.31V541.74H240.48ZM241.09 543.81V544.5H242.65V543.81H241.09ZM235.61 547.34V550.66H241.31V547.34H235.61ZM240.5 548.01V549.98H236.43V548.01H240.5ZM234.73 542.19V545.81H235.56V542.19H234.73ZM234.73 545.47V546.17H235.44C236.79 546.17 238.14 546.08 239.67 545.76L239.57 545.08C238.09 545.38 236.74 545.47 235.44 545.47H234.73ZM244.129 545.96V546.64H250.339V545.96H244.129ZM243.099 548.95V549.65H251.289V548.95H243.099ZM246.759 546.25V549.23H247.589V546.25H246.759ZM244.129 542.46V546.26H244.959V543.14H250.249V542.46H244.129Z" fill="#AC122C" style="fill: rgb(172, 18, 44);"></path>
    </g>
    <g id="southHamgyong" style="fill: rgb(237, 166, 151);">
        
        <path d="M470.59 470.618L470.203 470.977L469.983 471.723L469.485 472.468L469.044 470.425L468.381 470.922L467.884 471.64L467.415 471.447L467.166 471.005H466.779L465.896 470.48H465.178L464.929 471.253L465.288 472.275L464.046 472.33L463.797 472.965L464.377 473.821L467.635 473.932L469.292 473.6L470.452 473.048L471.17 471.999L471.474 470.95V470.149L470.977 469.983L470.59 470.646V470.618ZM574.388 384.824L572.234 384.244L570.329 383.057L569.031 380.986L568.727 378.224L569.114 376.015L569.031 373.917L567.264 371.459L562.597 367.704L560.388 365.412L558.952 362.623L558.593 360.635L558.483 356.714L558.207 354.781L557.544 353.124L556.578 351.578L554.424 348.871L552.933 346.497L552.159 344.039L552.408 341.637L553.954 339.428L554.672 337.302L553.651 334.816L552.298 332.221L552.049 329.708L553.209 327.112L555.832 322.611L556.55 319.74L556.495 315.542L555.639 311.594L552.767 304.221L549.536 300.41L545.118 297.649L532.885 291.961L531.146 291.491L529.379 291.657L526.507 292.513H525.181L520.294 290.967L518.527 291.16L518.14 293.093L518.25 295.026L518.085 297.649L517.726 300.272L517.256 302.205L515.793 303.862L510.988 305.602L509.028 306.872L507.73 308.832L505.576 313.195L504.14 315.128L500.771 316.84L496.629 317.061L492.377 316.757L488.621 316.923L486.716 319.16L487.296 323.357L488.787 328.162L489.643 332.276L489.339 334.816L487.876 340.063L487.434 342.769L487.13 348.292L486.771 350.942L486.109 353.649L485.335 355.443L483.513 358.564L482.823 360.414L482.188 366.351L481.608 368.173L480.227 370.134L474.732 374.856L472.965 376.899L468.326 384.051L465.288 387.116L461.947 387.53L458.606 385.928L455.596 382.946L454.16 381.786L452.448 381.372L450.653 381.51L441.541 384.769L439.884 386.122L438.752 387.861L437.951 389.96L437.261 392.362L436.239 394.737L434.693 396.753L424.034 405.285L416.496 409.621L414.425 410.228L413.044 409.841L412.298 408.295L412.133 405.368L412.243 401.199L412.63 399.348L413.569 397.498L415.778 394.986L416.468 393.715L416.772 391.644L416.496 389.435L415.999 387.779V386.26L417.241 384.465L417.987 382.808L416.523 382.145L412.796 382.035L411.332 381.759L410.117 381.262L409.068 380.351L408.157 378.859L407.494 376.374L406.748 370.714L405.699 368.449L404.291 367.207L402.938 366.489L401.667 365.605L400.397 363.838L395.648 355.388L395.068 353.483L394.433 349.341L393.77 347.38L392.113 345.889L390.07 345.282L388.496 344.536L388.247 342.603L389.214 340.891L390.815 339.29L398.05 333.546L400.011 330.012L399.652 326.035L396.752 321.369L396.228 319.519L397.802 318.663L401.308 318.386L403.02 317.779L404.346 316.564L405.257 314.824L405.754 312.615L406.527 306.734L406.665 301.68L405.119 297.897L400.894 295.799L392.997 294.114L389.932 295.357L388.026 299.968L387.529 303.034L386.839 305.657L385.541 307.534L383.249 308.335L378.362 308.004L373.557 306.899L373.005 312.671L371.348 316.426L365.522 322.943L363.589 327.029L362.705 332.607L363.285 337.964L365.853 341.388L370.326 343.542L371.735 345.392L371.873 348.54L371.32 350.583L370.382 352.268L369.139 353.593L367.676 354.532L362.595 356.134L353.482 361.574L350.997 365.136L349.258 374.193L347.104 377.7L345.64 378.418L340.449 379.108L338.267 379.743L336.555 380.682L334.981 381.98L333.214 383.747L329.652 386.287L326.78 387.834L325.317 390.429L326.062 396.118L325.952 400.453L323.798 403.711L320.954 406.749L318.773 410.394L318.082 412.934L317.585 415.695L317.337 418.512L317.392 420.611L328.051 420.335L329.625 420.583L331.778 421.273L333.352 422.019L334.346 422.764L339.952 428.287L340.532 429.226L340.78 430.027L340.891 430.8L340.808 431.601L340.587 432.429L339.924 434.058L339.62 435.052V435.246L340.09 439.581L340.587 441.762L341.25 443.253L342.409 444.248L346.772 447.009L347.904 448.169L348.512 449.273V450.184V451.096L348.291 451.924L347.904 452.697L346.717 454.216L338.654 460.705L338.185 461.174L337.715 461.837L337.467 462.748V463.881L337.743 465.454L337.798 466.504L337.411 467.277L336.721 467.636L335.837 467.857L335.092 468.188L334.595 468.879L334.512 469.735L334.567 470.591L334.899 472.579L336.307 478.598L336.804 479.951L340.283 486.33L340.78 487.766L340.946 489.312L340.78 490.306L340.504 491.218L339.814 492.736L339.4 493.454L338.847 494.2L338.157 494.752L337.411 495.111L332.745 495.498L331.861 495.719L331.171 496.216L330.177 497.513L329.459 498.038L328.713 498.397H327.995L327.526 498.204L326.974 497.652L325.455 495.111L324.903 494.338L324.185 493.703L323.494 493.289L321.948 492.681L320.153 492.322H312.642L306.153 493.979L304.579 494.586L303.751 495.083L302.978 495.636L302.26 496.298L301.569 497.32L300.99 498.646L299.388 504.223L299.029 505.107L298.642 505.908L296.682 508.78L295.108 511.983L294.887 513.225L295.246 514.137L295.909 514.551L296.765 514.772L297.593 514.882L298.256 515.103L298.642 515.517L298.919 516.539L298.808 517.34L298.504 518.002L293.976 522.918L293.147 524.464L292.927 525.596L293.009 526.618L293.921 529.02L294.169 529.987L294.28 531.146L294.224 532.858L293.838 533.991L293.23 534.874L292.485 535.509L291.601 536.559L290.745 537.967L289.696 540.756L289.447 542.33V543.545L289.779 544.345L290.248 545.174L291.463 546.693L294.362 549.371L295.191 549.979L295.964 550.779L296.627 551.801L297.124 553.403V554.507L296.986 555.446L295.218 560.113L292.788 570.053L292.429 572.649V574.471L292.706 575.272L293.175 576.128L293.755 576.929L294.528 577.702L295.356 578.227L296.213 578.558L297.096 578.641L297.842 578.586L298.477 578.448L302.315 576.57L303.116 576.322L303.999 576.156L305.629 576.239L306.043 576.322L306.54 576.487L306.899 576.681L307.451 577.067L308.031 577.647L308.528 578.365L308.859 579.138L309.135 579.911L309.522 581.568L309.826 582.341L310.323 582.894L310.986 582.949L311.676 582.535L312.946 581.154L313.719 580.657L314.575 580.408L315.459 580.353L316.343 580.436L317.171 580.684L317.889 581.099L318.607 581.872L319.187 582.921L319.656 584.467L319.767 585.655L319.656 586.677L319.104 588.471L318.855 589.631L318.993 590.487L319.573 591.177L320.374 591.592L321.23 591.785H322.086L325.4 591.122L327.112 591.177L327.747 591.316L328.271 591.509L330.784 592.862L332.22 591.675L332.441 590.653V589.742L331.613 587.174L331.226 584.771L331.53 583.501L332.165 582.673L335.617 581.679L336.611 581.182L337.853 580.105L338.378 579.111L338.599 578.089L338.709 576.128L338.82 575.079L339.62 571.876L340.228 567.099L340.615 565.829L341.194 564.669L341.968 563.785L343.072 562.763L344.011 562.101L344.867 561.659L345.668 561.438L346.551 561.383L350.831 562.101L356.741 561.162L360.607 561.383L366.405 562.46L372.038 561.687L374.965 561.852L375.877 561.659H376.65L377.423 561.769L379.025 562.487L379.301 562.073L382.752 558.76L384.271 557.655L385.707 558.207L386.756 559.809L387.17 561.88L391.23 567.596L389.435 571.71L388.689 573.947L388.827 575.935L389.987 577.619L391.34 578.089L392.638 577.481L393.521 575.935L393.632 571.765L390.401 556.633L388.662 546.527L390.567 540.231L394.985 533.687L394.488 530.207L392.445 527.336L389.573 525.955L388.468 526.093L387.723 525.375L387.281 523.774L387.032 520.156L386.48 517.92L386.425 516.594L386.701 515.324L387.723 512.949L387.944 511.817L388.689 510.547L392.03 508.393L393.494 504.886L395.151 503.008L397.139 501.49L398.796 500.882L400.729 497.734L403.656 499.253L405.368 501.407L407.273 499.943L409.151 495.111L412.851 493.73L416.965 494.283L420.665 492.433L420.941 490.914L419.229 489.423L430.081 488.291L431.186 486.882L432.042 480.504V477.853L433.837 474.374L436.598 476.224L437.73 475.782L438.586 474.733L440.519 471.309L441.32 470.591L442.397 470.342L443.557 469.679L444.496 468.823L444.855 467.967L445.02 465.758L445.545 465.04L461.063 467.774L461.56 468.464L461.947 469.155L462.914 469.458L463.99 469.21L466.117 467.967L467.415 467.47H468.574L471.142 467.746L472.219 467.47L471.446 463.356L472.44 461.561L475.616 460.153L477.576 461.92L480.144 466.808L483.154 467.608L484.314 461.671L487.462 457.115L490.637 456.701L492.929 457.198L495.69 456.038L497.292 455.21L499.363 452.946L500.937 451.344L504.499 451.234L506.542 450.019L507.537 448.804L508.365 446.457L512.396 444.386L513.694 443.392L515.986 443.53L517.588 444.275L518.416 444.358L519.106 443.751L519.935 442.756L520.984 441.762L522.586 441.127L522.365 437.427L522.972 435.135L522.144 434.003L521.674 432.567L518.416 431.214L516.98 430.386L517.284 426.409L519.327 423.979L521.536 422.903L521.702 424.338H523.221L525.347 421.191L529.296 420.003L532.858 420.583L534.266 418.816L536.254 418.733L540.065 417.518L542.053 415.613L545.56 414.922L550.144 410.891L559.035 401.392L565.386 399.238L570.936 399.459L575.327 393.522L579.524 388.165L580.049 386.508L580.656 385.293L574.526 384.851L574.388 384.824Z" stroke="#F5F5F4" stroke-width="1.5" stroke-linecap="round" stroke-linejoin="round" style="opacity: 1;"></path>
      <path d="M405.882 428.74V434.18H406.712V428.74H405.882ZM406.482 431.14V431.83H408.052V431.14H406.482ZM401.032 434.69V437.66H406.712V434.69H401.032ZM405.902 435.36V436.99H401.842V435.36H405.902ZM399.722 429.69V430.37H405.062V429.69H399.722ZM402.392 430.81C401.092 430.81 400.222 431.45 400.222 432.43C400.222 433.41 401.092 434.03 402.392 434.03C403.682 434.03 404.552 433.41 404.552 432.43C404.552 431.45 403.682 430.81 402.392 430.81ZM402.392 431.45C403.202 431.45 403.762 431.83 403.762 432.43C403.762 433.02 403.202 433.4 402.392 433.4C401.562 433.4 401.012 433.02 401.012 432.43C401.012 431.83 401.562 431.45 402.392 431.45ZM401.972 428.66V430.04H402.802V428.66H401.972ZM412.821 430.4V431.08H415.241V430.4H412.821ZM412.741 432.28V432.96H415.181V432.28H412.741ZM415.101 428.74V434.16H415.931V428.74H415.101ZM412.271 429.42V429.78C412.271 431.49 410.921 432.82 408.611 433.49L408.951 434.16C411.551 433.38 413.161 431.75 413.161 429.42H412.271ZM409.081 429.42V430.1H412.841V429.42H409.081ZM412.991 434.26C411.161 434.26 410.001 434.91 410.001 436C410.001 437.09 411.161 437.74 412.991 437.74C414.821 437.74 415.981 437.09 415.981 436C415.981 434.91 414.821 434.26 412.991 434.26ZM412.991 434.91C414.321 434.91 415.171 435.32 415.171 436C415.171 436.68 414.321 437.08 412.991 437.08C411.671 437.08 410.821 436.68 410.821 436C410.821 435.32 411.671 434.91 412.991 434.91ZM423.48 428.74V433.85H424.31V428.74H423.48ZM424.09 430.81V431.5H425.65V430.81H424.09ZM418.61 434.34V437.66H424.31V434.34H418.61ZM423.5 435.01V436.98H419.43V435.01H423.5ZM417.73 429.19V432.81H418.56V429.19H417.73ZM417.73 432.47V433.17H418.44C419.79 433.17 421.14 433.08 422.67 432.76L422.57 432.08C421.09 432.38 419.74 432.47 418.44 432.47H417.73ZM427.129 432.96V433.64H433.339V432.96H427.129ZM426.099 435.95V436.65H434.289V435.95H426.099ZM429.759 433.25V436.23H430.589V433.25H429.759ZM427.129 429.46V433.26H427.959V430.14H433.249V429.46H427.129Z" fill="#AC122C" style="fill: rgb(172, 18, 44);"></path>
    </g>
    <g id="ryanggang" style="fill: rgb(218, 24, 40);">
        
        <path fill-rule="evenodd" clip-rule="evenodd" d="M548.045 156.932L547.741 158.285L546.333 161.709L544.207 164.029L539.015 167.204L536.861 169.662L535.453 172.754L534.625 174.163L533.465 175.129L531.836 175.239L528.798 173.942L527.197 174.466L527.556 177.863L527.832 179.354L529.268 183.523L529.599 184.821L529.848 186.285L529.903 188.991L530.069 190.372L530.566 191.448L531.56 191.669L534.376 190.703L535.453 190.813L536.337 192.139L536.475 193.851L535.757 197.965L535.591 200.119L535.647 205.504L535.923 207.63L536.558 209.369L538.297 212.296L538.574 214.147L537.773 216.245L536.42 217.847L535.481 219.338L536.061 221.16L537.635 222.099L543.792 222.707L546.913 224.833L549.757 228.588L551.607 233.089L551.745 237.452L549.453 241.511L546.001 244.328L542.936 247.531L541.639 252.584L542.439 257.831L544.317 262.718L549.37 271.168L550.834 272.825L552.491 274.371L553.899 276.138L554.534 278.513L554.092 280.971L551.524 285.113L550.668 287.266L551.165 291.767L553.098 295.964L554.313 300.079L552.739 304.276L549.508 300.438L545.09 297.677L532.83 292.016L531.118 291.519L529.323 291.684L526.451 292.54L525.126 292.568L520.238 291.022L518.443 291.215L518.085 293.12L518.195 295.053L518.029 297.677L517.67 300.3L517.201 302.233L515.765 303.862L510.96 305.602L509 306.872L507.702 308.832L505.548 313.195L504.112 315.128L500.743 316.84L496.601 317.061L492.349 316.73L488.594 316.895L486.688 319.16L487.241 323.329L488.732 328.134L489.615 332.276L489.312 334.816L487.848 340.063L487.406 342.769L487.075 348.292L486.744 350.942L486.081 353.649L485.28 355.443L483.485 358.591L482.795 360.441L482.16 366.378L481.58 368.173L480.199 370.161L474.704 374.883L472.937 376.926L468.298 384.106L465.26 387.171L461.919 387.585L458.55 386.011L455.541 383.029L454.105 381.897L452.393 381.483L450.598 381.621L441.485 384.879L439.829 386.232L438.696 387.972L437.896 390.043L437.233 392.473L436.211 394.847L434.665 396.863L424.006 405.396L416.468 409.731L414.397 410.338L413.016 409.952L412.271 408.406L412.105 405.479L412.215 401.309L412.602 399.431L413.541 397.581L415.75 395.068L416.44 393.798L416.744 391.727L416.468 389.518L415.971 387.834L415.998 386.315L417.213 384.548L417.959 382.891L416.523 382.228L412.795 382.09L411.332 381.814L410.117 381.317L409.068 380.378L408.156 378.887L407.494 376.429L406.748 370.741L405.699 368.504L404.29 367.262L402.937 366.544L401.667 365.66L400.397 363.893L395.647 355.443L395.068 353.538L394.432 349.396L393.742 347.436L392.113 345.944L390.042 345.337L388.468 344.591L388.22 342.658L389.186 340.919L390.788 339.317L398.022 333.574L399.983 330.039L399.596 326.035L396.697 321.369L396.172 319.546L397.774 318.69L401.281 318.386L402.993 317.779L404.29 316.592L405.202 314.852L405.726 312.643L406.499 306.761L406.61 301.708L405.091 297.897L400.866 295.826L392.969 294.114L389.904 295.385L387.999 299.996L387.502 303.061L386.811 305.684L385.486 307.562L383.222 308.335L378.334 308.004L373.529 306.899L373.667 303.586L373.446 299.444L372.867 295.44L371.817 292.54L369.277 290.69H365.908L362.512 291.905L359.888 293.783L358.232 296.075L357.072 298.394L355.608 300.438L353.234 301.929L351.66 302.15L347.076 300.852L343.514 300.465L341.967 299.941L335.23 295.44L333.048 293.479L331.585 290.497L330.95 286.162L330.425 284.257L329.238 282.572L327.802 280.915L327.691 279.894L328.188 278.927L328.52 277.408L327.664 274.978L323.743 271.72L322.5 268.683L321.727 263.27L321.119 260.647L320.291 258.134L318.165 254.572L317.833 253.551L318.192 252.474L319.766 250.789L319.987 249.574L319.38 248.304L318.275 247.862L317.005 247.89L315.983 248.138L311.731 250.099L309.66 250.154L307.534 248.359L306.705 246.703L305.987 244.3L305.684 241.787L305.987 239.827L307.313 238.17L308.804 237.811L312.173 238.308L314.271 237.783L315.321 236.513L316.121 234.718L317.309 232.592L319.076 231.129L321.147 230.107L322.942 228.809L323.991 226.462L324.019 225.137L323.826 224.032L323.163 221.74L322.638 218.289L322.555 214.588L323.328 209.784L325.123 205.586L327.25 201.583L327.636 200.699V200.671L331.557 203.902L332.662 203.736L333.159 205.835L335.672 209.839L336.638 211.855L334.65 211.634L333.407 212.324L332.993 213.87L333.463 216.135L334.595 217.736L336.334 218.924L339.924 220.415L339.593 221.022L339.068 222.569L341.029 222.872L347.103 225.302L348.705 226.821L346.165 227.843L343.652 229.306L341.498 231.432L339.924 234.304L340.78 234.415L341.829 234.718L342.685 235.215L343.431 236.707L344.342 236.403L345.916 235.381L346.993 235.685L347.628 236.403L348.07 237.121L348.705 237.48L349.589 236.789L351.135 233.559L351.908 232.951L353.648 233.78L356.299 235.768L357.9 236.154L358.977 235.878L359.833 235.381L360.606 235.298L361.49 236.154L361.6 237.231L360.855 238.225L359.888 238.998L359.17 239.357L361.186 240.296L363.395 240.987L367.951 241.511L369.084 241.29L371.099 240.434L372.038 240.324L373.143 240.766L373.999 241.484L374.634 242.202L375.076 242.561L377.699 242.781L379.521 242.008L381.178 240.959L383.166 240.324L385.127 240.849L387.17 241.981L389.214 242.588L391.202 241.511L391.423 244.99L393.079 246.675L397.608 247.89L401.474 250.624L402.385 251.093L403.407 250.596L404.705 248.497L405.229 248.415L408.46 249.685L419.505 249.988L422.515 248.967L424.669 250.458L427.016 250.872L428.921 249.906L429.695 247.365L430.827 246.261L433.422 245.405L438.172 244.687L441.679 247.89L442.894 247.338L443.86 246.205L444.854 244.687L446.152 246.371L446.235 249.16L446.042 251.949L446.483 253.689L447.478 253.965L448.637 253.606L450.625 252.529L450.184 255.953L452.199 257.555L455.016 257.499L456.866 255.815L458.523 256.781L456.866 259.018L461.809 259.432L466.42 255.069L478.349 233.144L480.172 227.097L477.852 223.701L477.631 220.912L476.168 217.709L474.069 215.085L470.921 213.622L466.475 209.949L463.327 206.995L462.83 203.543L461.588 200.257L456.065 189.598L455.347 186.616L451.454 185.318L450.294 183.109L449.383 180.652L447.091 167.204L447.201 164.885L448.748 162.703L451.095 161.985L456.452 161.847L475.367 156.545L487.268 157.539L490.002 158.451L492.404 160.411L497.816 160.08L501.848 162.096L503.477 162.316L508.337 160.439L509.442 160.66L510.739 161.599L511.844 161.046L513.473 158.561L514.633 157.429L515.848 156.96L524.574 157.65L527.694 156.96L529.075 154.226L540.313 154.806L548.045 156.932Z" stroke="#F5F5F4" stroke-width="1.5" stroke-linecap="round" stroke-linejoin="round" style="opacity: 1;"></path>
    <path d="M452.361 281.09V281.78H453.931V281.09H452.361ZM452.361 283.01V283.7H453.931V283.01H452.361ZM448.121 280.27C446.761 280.27 445.761 281.15 445.761 282.41C445.761 283.66 446.761 284.53 448.121 284.53C449.481 284.53 450.481 283.66 450.481 282.41C450.481 281.15 449.481 280.27 448.121 280.27ZM448.121 280.97C449.021 280.97 449.671 281.56 449.671 282.41C449.671 283.26 449.021 283.84 448.121 283.84C447.221 283.84 446.571 283.26 446.571 282.41C446.571 281.56 447.221 280.97 448.121 280.97ZM451.781 279.74V285.09H452.611V279.74H451.781ZM449.731 285.38C447.891 285.38 446.761 286.01 446.761 287.07C446.761 288.14 447.891 288.76 449.731 288.76C451.571 288.76 452.701 288.14 452.701 287.07C452.701 286.01 451.571 285.38 449.731 285.38ZM449.731 286.05C451.071 286.05 451.891 286.42 451.891 287.07C451.891 287.72 451.071 288.1 449.731 288.1C448.391 288.1 447.571 287.72 447.571 287.07C447.571 286.42 448.391 286.05 449.731 286.05ZM460.58 279.74V285.15H461.41V279.74H460.58ZM461.18 282.07V282.77H462.75V282.07H461.18ZM458.08 280.4V280.78C458.08 282.47 456.7 283.83 454.4 284.51L454.75 285.18C457.36 284.41 458.97 282.72 458.97 280.4H458.08ZM454.8 280.4V281.09H458.55V280.4H454.8ZM458.58 285.26C456.78 285.26 455.63 285.92 455.63 287.01C455.63 288.1 456.78 288.76 458.58 288.76C460.37 288.76 461.51 288.1 461.51 287.01C461.51 285.92 460.37 285.26 458.58 285.26ZM458.58 285.92C459.88 285.92 460.71 286.33 460.71 287.01C460.71 287.69 459.88 288.1 458.58 288.1C457.28 288.1 456.45 287.69 456.45 287.01C456.45 286.33 457.28 285.92 458.58 285.92ZM464.23 283.96V284.64H470.44V283.96H464.23ZM463.2 286.95V287.65H471.39V286.95H463.2ZM466.86 284.25V287.23H467.69V284.25H466.86ZM464.23 280.46V284.26H465.06V281.14H470.35V280.46H464.23Z" fill="#7C0E2A" style="fill: rgb(76, 9, 32);"></path>
    </g>
    <g id="rason" style="fill: rgb(243, 203, 188);">
      
      <path d="M757.493 112.613L756.305 111.122L756.001 108.995V104.991L755.587 101.181L754.317 98.3919L752.301 96.1828L749.65 95.2716L747.497 93.4767L746.116 91.2953L744.155 85.4413L743.686 84.6681L743.106 84.2263L742.664 83.4531L742.471 81.7135L742.25 81.0508L740.869 77.8752L740.207 74.893L739.544 68.6524L739.185 66.9404L737.418 65.1179L735.402 65.2284L733.497 66.7471L732.006 69.1771L733.856 71.6346L733.497 73.9818L731.702 74.8654H731.647L731.232 82.1829L729.41 90.2183L724.412 92.6759L715.769 95.1335L709.39 95.741L708.949 100.049L711.682 103.141L710.771 109.299L704.392 117.307L701.217 124.68L702.459 134.344L703.951 134.179L705.607 132.936L708.231 129.319L713.229 124.293L714.775 124.404L715.741 127.165L714.858 130.534L714.72 132.826L716.1 132.577L717.481 131.5L718.006 127.938L719.939 127.607L720.795 125.536L722.092 125.094L721.015 123.244L721.871 121.338L723.059 121.007L724.826 123.189L725.71 123.437L726.317 122.305V120.538L725.516 120.151L724.578 120.013L723.998 118.964V117.859L723.749 115.705L724.909 114.325L726.29 113.193L726.428 111.839L726.483 110.431H727.864L729.355 111.453L730.321 112.889L732.226 112.475L733.745 110.845L733.303 108.83L735.071 108.029L738.522 108.664L739.572 109.962L742.084 111.425L745.453 111.922L746.944 113.082L748.463 114.628L748.767 115.623L748.85 117.362L748.739 120.234L749.485 120.151L750.976 118.715L752.715 118.384L756.885 117.003L760.199 116.064L760.723 115.098L757.548 112.557L757.493 112.613ZM710.799 133.737L709.611 135.311L709.363 136.194L709.722 136.388L709.943 136.443L710.025 137.023L710.246 137.768L710.826 138.652L712.455 136.968L712.124 134.841L710.826 133.709L710.799 133.737Z" stroke="#F5F5F4" stroke-width="1.5" stroke-linecap="round" stroke-linejoin="round"></path>
    <path d="M745.221 97.34V98.04H746.891V97.34H745.221ZM744.611 93.73V102.78H745.451V93.73H744.611ZM738.851 94.62V100.22H739.681V94.62H738.851ZM738.851 99.79V100.49H739.571C740.941 100.49 742.331 100.4 743.871 100.08L743.771 99.39C742.281 99.7 740.911 99.79 739.571 99.79H738.851ZM751.93 95.87V96.56H754.21V95.87H751.93ZM749.56 94.29V95.4C749.56 96.78 748.65 98.06 747.31 98.56L747.74 99.22C749.25 98.61 750.23 97.15 750.23 95.4V94.29H749.56ZM749.72 94.29V95.43C749.72 97.04 750.69 98.44 752.13 99L752.58 98.36C751.27 97.88 750.39 96.69 750.39 95.43V94.29H749.72ZM753.9 93.75V100.51H754.73V93.75H753.9ZM748.92 101.9V102.58H754.95V101.9H748.92ZM748.92 99.76V102.22H749.75V99.76H748.92Z" fill="#575154" style="fill: rgb(172, 18, 44);"></path>
    </g>
    <g id="northHamgyong" style="fill: rgb(218, 24, 40);">
          
          <path fill-rule="evenodd" clip-rule="evenodd" d="M679.704 9.2844L684.288 9.0911L689.783 6.68875L692.958 5.88797L694.367 7.35147L694.008 9.47769L693.069 12.0457L691.799 14.3376L690.308 15.5526L695.168 17.8445L701.436 17.6788L706.71 18.6177L708.753 24.2508L707.096 37.8089L707.179 43.9666L709.471 49.5169L715.85 56.0612L716.761 58.7949L724.741 65.781L726.011 66.14L727.033 66.0572L727.944 66.1124L728.8 66.8856L729.049 68.1282L728.635 71.2209L729.215 72.9053L731.645 74.8106L731.23 82.1557L729.408 90.1635L724.41 92.6487L715.739 95.1063L709.388 95.7138L708.919 100.049L711.653 103.114L710.741 109.299L704.363 117.28L701.187 124.68L702.402 134.345L702.651 136.554L702.071 145.749L701.436 145.804L700.414 145.335L699.089 146.136L697.487 148.317L697.874 148.565L698.233 149.56L697.404 150.25L696.3 150.029L694.339 148.372L692.793 147.516L689.59 147.571L687.298 149.366L686.69 152.349L686.58 153.536L684.84 153.784L684.564 155.055L683.984 156.049L683.018 159.887L682.714 162.427L681.886 162.869L680.505 159.445L679.069 159.997L678.903 163.228L676.667 164.443L677.467 165.161L678.047 165.962L679.069 167.674L677.909 168.033L677.053 168.751L675.811 170.905L676.197 170.573L675.894 172.092L675.341 173.97L675.065 174.715L674.623 177.642L673.408 178.691L672.525 178.25L671.42 176.841L668.631 175.682L666.671 176.786L665.925 180.127L665.097 184.131L665.235 189.378L663.495 194.486L661.783 196.005L661.479 198.656L660.347 199.622L658.442 196.53L656.896 196.64L652.395 199.539L650.986 203.985L649.468 209.425L648.474 211.358L645.381 212.711L642.564 216.715L641.681 221.741L640.052 228.257L637.649 232.427L639.03 236.099L638.698 238.695L638.091 241.07L638.892 245.654L641.487 249.022L643.835 251.287L645.353 252.695L647.866 252.446L648.805 254.655L650.434 256.92L651.732 257.914L652.477 258.024L654.3 257.665L654.935 257.914L656.067 259.488L655.957 259.985L655.322 260.648L654.935 262.691L654.714 263.188L653.803 266.667L653.72 267.496L651.87 268.987L650.545 272.466L645.933 292.044L645.022 298.947L646.955 304.746L646.209 306.817L645.961 309.247L646.071 314.3L646.955 321.259L647.452 322.777L649.578 325.456L651.235 326.588L650.13 327.416L649.385 330.813L649.827 331.917L647.645 334.844L648.004 337.882L646.596 341.527L645.574 343.57L644.359 343.404L643.448 341.886L641.819 342.466L639.278 342.935L637.069 342.493L634.998 343.018L633.093 342.604L631.685 342.963L628.62 342.797L626.549 344.454L626.217 347.353L623.981 347.795L622.351 349.617L620.971 350.142L617.492 349.866L611.693 351.826L607.275 355.002L602.884 357.377L601.476 359.061L600.095 361.574L598.135 366.323L597.196 368.45L596.367 368.035L595.263 366.903L594.241 364.667L593.33 363.148L591.342 362.955L589.05 363.507L587.2 364.943L586.565 366.544L585.874 368.146V369.002L585.93 369.996L585.322 371.128L585.156 371.984L584.853 373.945L584.356 374.773L584.024 376.319L583.61 377.258L582.699 378.308L582.147 379.246L582.036 380.82L581.926 384.603L580.6 385.1L580.517 385.266L574.387 384.824L572.233 384.244L570.301 383.057L569.003 380.986L568.699 378.252L569.113 376.043L569.003 373.945L567.235 371.487L562.569 367.732L560.332 365.44L558.896 362.651L558.537 360.663L558.427 356.742L558.178 354.809L557.516 353.152L556.522 351.633L554.368 348.927L552.877 346.552L552.103 344.095L552.352 341.692L553.898 339.483L554.616 337.329L553.595 334.872L552.242 332.249L551.993 329.736L553.18 327.14L555.804 322.667L556.522 319.795L556.466 315.598L555.61 311.649L552.739 304.276L554.312 300.079L553.098 295.965L551.165 291.768L550.668 287.267L551.524 285.113L554.092 280.971L554.533 278.513L553.898 276.139L552.49 274.371L550.833 272.825L549.37 271.168L544.316 262.719L542.439 257.831L541.638 252.584L542.936 247.531L546.001 244.328L549.453 241.512L551.744 237.452L551.606 233.09L549.756 228.589L546.912 224.833L543.792 222.707L537.634 222.099L536.06 221.161L535.48 219.338L536.419 217.847L537.772 216.245L538.573 214.147L538.297 212.297L536.557 209.37L535.922 207.63L535.646 205.504L535.591 200.119L535.756 197.966L536.474 193.851L536.336 192.139L535.453 190.814L534.376 190.703L531.559 191.67L530.565 191.449L530.068 190.372L529.902 188.991L529.847 186.285L529.599 184.822L529.267 183.524L527.831 179.354L527.555 177.863L527.196 174.467L528.798 173.942L531.835 175.24L533.465 175.129L534.624 174.163L535.453 172.755L536.861 169.662L539.015 167.204L544.206 164.029L546.332 161.709L547.741 158.285L548.044 156.932L550.419 157.567L554.699 156.132L556.439 149.863L557.488 147.765L559.973 147.074L562.762 146.743L564.833 145.666L567.953 142.353L569.141 140.254L569.306 137.465L572.068 139.149L574.084 139.315L575.74 138.155L579.054 134.317L582.506 131.197L584.715 128.712L585.626 127.911L586.427 127.027L586.786 126.116L586.206 124.68L583.582 124.487L582.865 123.355L583.168 121.56L584.218 120.704L585.46 120.262L586.427 119.572L586.841 118.219L586.786 116.948L587.007 115.789L588.415 114.712L587.531 113.773L586.565 113.138L585.571 112.751L584.411 112.668V111.481H588.194L589.381 110.597L590.072 108.223L589.851 107.394L589.133 106.98L588.47 106.428L588.415 104.992L588.774 103.666L589.354 102.589L590.182 101.899L596.423 100.546L597.279 100.187L597.665 97.3154L598.632 94.9958L599.93 94.2779L601.255 96.2384L602.939 95.272L601.945 93.8913L601.338 92.4554L601.531 91.3233L602.939 90.9367L604.21 91.4061L605.259 93.3667L606.916 94.0846L607.993 93.7533L609.263 92.8144L610.726 92.0136H612.521L618.182 96.8183L618.927 98.1161L622.241 99.9662L622.959 101.154L623.373 102.783L624.34 103.363L625.527 103.087L626.576 102.203L627.184 100.601L627.294 99.0274L627.626 97.8676L630.497 96.7355L631.298 94.9958L631.436 92.8972L630.967 90.9367L635.854 91.3233L640.272 92.5107L644.028 91.8203L647.01 86.491L647.562 80.8026L647.314 74.5897L647.894 69.1499L651.014 65.781V64.8146L649.053 64.3175L648.501 62.1637L649.606 59.9547L652.616 59.2919L652.091 56.9724L652.919 55.5918L653.886 54.5701L653.748 53.2999L652.367 51.9468L651.18 51.3669L650.379 50.29L650.158 47.3354L650.351 45.3473L650.821 43.5524L652.229 40.2112L654.107 36.1244L654.742 33.9154L655.211 29.0831L659.326 17.7893L660.182 16.1325L660.789 14.4757L660.9 10.7755L661.397 9.0911L662.722 7.95896L666.256 7.54476L667.858 6.7992L666.781 6.38501L665.87 5.7499L665.18 4.83867L664.683 3.62368L665.953 3.07142L668.107 1.63553L669.46 1.33179L671.034 1.63553L671.89 2.4087L675.424 7.18579L676.556 8.31793L678.241 9.0911L679.704 9.2844Z" stroke="#F9F9F9" stroke-width="1.5" stroke-linecap="round" stroke-linejoin="round"></path>
    <path class="text__shape" d="M590.882 193.74V199.18H591.712V193.74H590.882ZM591.482 196.14V196.83H593.052V196.14H591.482ZM586.032 199.69V202.66H591.712V199.69H586.032ZM590.902 200.36V201.99H586.842V200.36H590.902ZM584.722 194.69V195.37H590.062V194.69H584.722ZM587.392 195.81C586.092 195.81 585.222 196.45 585.222 197.43C585.222 198.41 586.092 199.03 587.392 199.03C588.682 199.03 589.552 198.41 589.552 197.43C589.552 196.45 588.682 195.81 587.392 195.81ZM587.392 196.45C588.202 196.45 588.762 196.83 588.762 197.43C588.762 198.02 588.202 198.4 587.392 198.4C586.562 198.4 586.012 198.02 586.012 197.43C586.012 196.83 586.562 196.45 587.392 196.45ZM586.972 193.66V195.04H587.802V193.66H586.972ZM597.821 195.4V196.08H600.241V195.4H597.821ZM597.741 197.28V197.96H600.181V197.28H597.741ZM600.101 193.74V199.16H600.931V193.74H600.101ZM597.271 194.42V194.78C597.271 196.49 595.921 197.82 593.611 198.49L593.951 199.16C596.551 198.38 598.161 196.75 598.161 194.42H597.271ZM594.081 194.42V195.1H597.841V194.42H594.081ZM597.991 199.26C596.161 199.26 595.001 199.91 595.001 201C595.001 202.09 596.161 202.74 597.991 202.74C599.821 202.74 600.981 202.09 600.981 201C600.981 199.91 599.821 199.26 597.991 199.26ZM597.991 199.91C599.321 199.91 600.171 200.32 600.171 201C600.171 201.68 599.321 202.08 597.991 202.08C596.671 202.08 595.821 201.68 595.821 201C595.821 200.32 596.671 199.91 597.991 199.91ZM605.96 198.61V200.17H606.78V198.61H605.96ZM602.29 198.16V198.84H610.46V198.16H602.29ZM603.2 199.89V200.56H608.62V202.78H609.45V199.89H603.2ZM603.38 193.95V197.33H609.4V193.95H608.57V194.97H604.2V193.95H603.38ZM604.2 195.62H608.57V196.67H604.2V195.62ZM612.129 197.96V198.64H618.339V197.96H612.129ZM611.099 200.95V201.65H619.289V200.95H611.099ZM614.759 198.25V201.23H615.589V198.25H614.759ZM612.129 194.46V198.26H612.959V195.14H618.249V194.46H612.129Z" fill="#4C0920" style="fill: rgb(76, 9, 32);"></path>
    </g>
    <g id="northPyongang" style="fill: rgb(243, 203, 188);">
          
          <path d="M48.936 548.984L49.4054 550.144H49.7092L50.0129 549.509H50.5099L49.7644 548.101L48.936 548.984ZM49.5711 552.049L49.3226 552.712L49.9853 553.789L50.3995 553.513L50.151 552.767L49.5711 552.049ZM58.0207 539.789L58.2969 538.408L57.4961 537.387L55.4527 537.249L52.5257 538.077L50.9241 538.27L50.4271 538.105L48.4942 539.872L47.362 540.507L46.506 541.225L46.3127 542.247L46.8374 542.495L47.1964 542.136L52.0287 540.756L53.9892 542.164H55.6184L56.9714 541.197L57.9931 539.817L58.0207 539.789ZM48.6046 555.915L48.5218 555.667L48.3009 554.452L47.0307 555.639L45.9814 556.026V557.213L46.3403 558.538L47.0583 558.98L47.5829 558.87L49.0464 558.124L48.9084 556.412L48.577 555.915H48.6046ZM57.7998 542.633L57.1095 543.821L56.4468 544.732L56.6677 545.505L56.2535 546.775L56.7781 547.466L58.3245 547.576L59.1529 546.637L59.4842 545.036V543.351L59.1253 542.329L57.8274 542.633H57.7998ZM60.8925 560.527L60.4231 560.968L60.5059 561.88L61.6381 561.355L62.4112 560.361L61.7209 559.892L60.9201 560.499L60.8925 560.527ZM29.0545 519.659L29.5791 520.239H30.1314L29.7724 519.466L29.0821 519.659H29.0545ZM10.8021 484.148L12.3761 482.74L12.238 482.133L10.8021 484.121V484.148ZM38.7191 513.722L37.1727 514.882L37.6698 515.821L38.2497 514.495L39.2714 514.413L40.2378 513.805L40.8453 513.004L39.9893 512.811L38.6915 513.722H38.7191ZM16.4628 488.208L15.2755 486.993H14.1709L13.9776 487.655L14.5023 488.263L15.883 488.843L16.4628 488.208ZM4.67199 500.854V500.44L4.23017 500.302L4.06449 499.667L3.76075 499.419L3.53984 499.115H3.18087L2.76667 499.308L2.49054 499.474L2.73906 499.805L2.4077 500.026L2.10396 500.081L2.29725 500.689L1.74498 501.241L1.49646 501.738L1.3584 502.428V503.036L1.38601 503.091L1.91066 503.146L2.51815 503.284L2.73906 503.643H3.07042L3.2361 503.174L3.59507 502.622H4.17495L4.47869 502.207L4.9205 502.069L5.05857 501.655V501.241L4.67199 501.186V500.854ZM15.5516 489.671L15.7725 492.322L16.9875 492.736L17.8711 490.858L16.5181 489.34L15.524 489.644L15.5516 489.671ZM18.6167 477.632L17.7883 478.93L16.9875 481.111L18.8652 479.62L18.6443 477.632H18.6167ZM64.924 530.511L65.9457 529.848L65.4763 528.799L64.9517 530.511H64.924ZM111.508 541.722L110.458 541.971L109.796 542.385L109.05 543.406L110.044 543.821L110.541 544.759L111.038 543.351L111.894 542.468L112.115 542.661L112.75 541.722H111.949L111.508 541.667V541.722ZM106.703 547.438L107.034 546.554H106.454L106.703 547.438ZM112.419 539.513L111.287 539.679L110.154 539.402L109.74 539.513L109.547 540.093L110.734 540.59L111.452 541.363L112.778 541.225L112.667 540.783L112.419 539.485V539.513ZM83.0659 529.379V528.412L82.5689 527.86L82.0719 528.274L81.7957 528.412L82.9279 529.351H83.0659V529.379ZM117.472 542.744L116.45 543.213L116.395 543.903L117.417 544.98L118.273 545.367L119.074 544.152L117.721 543.517L117.444 542.771L117.472 542.744ZM253.937 484.48L253.743 483.569L253.357 482.63L250.899 478.377L250.595 477.549L250.43 476.638L250.568 474.788L250.816 473.02L251.092 471.971L251.148 471.805L252.777 469.182L248.303 467.028L245.984 466.366L235.187 465.04L232.73 463.991L227.566 460.594L225.909 458.91L220.911 452.448L213.179 445.214L210.032 440.934L207.988 438.725L207.049 438.2L206.276 438.09L204.73 438.2L203.183 437.786L202.024 437.04L200.615 435.908L199.566 435.466L198.6 435.328H196.888L195.203 435.66L193.546 436.433L191.945 437.454L191.006 437.786L189.874 437.869L188.162 437.593L187.03 437.096L186.118 436.488L184.268 434.721L170.627 425.608L166.872 422.074L165.988 420.969L165.547 420.003L165.685 419.147L166.182 418.374L166.762 417.628L167.259 416.855L167.424 416.027L167.259 415.198L166.762 414.425L161.874 409.234L161.487 408.488L161.239 407.715L161.101 406.887V406.003L161.377 405.175L162.233 403.463L162.482 402.579L163.034 398.244L163.089 398.05L163.227 397.636L164.553 395.455L164.884 394.626L165.16 393.798L165.353 392.997V392.114L165.105 391.34L164.221 389.352L164.055 388.8L163.365 385.293L162.868 384.216L162.15 383.692H161.267L159.361 384.189L158.34 384.133L157.097 383.664L156.296 382.974L152.651 378.252L151.519 377.12L150.553 376.374L142.296 371.569V371.68L142.517 373.64L142.075 374.8L139.452 374.69L138.707 374.275L137.298 372.922L136.249 372.481L135.365 372.591L133.101 373.337L131.527 372.757L129.76 371.984L128.02 372.177L126.143 372.95L125.425 374.662L124.707 376.208L123.685 377.368L122.083 377.948L119.046 379.273L114.959 380.599L111.618 382.145L109.271 383.857L107.117 385.21L104.19 386.536L102.312 387.695L99.551 388.662L96.624 389.794L95.4643 391.699V393.798L96.9278 395.703L98.2256 397.609L99.1092 399.514L98.5293 401.06L96.7621 401.64L94.4702 401.833L92.1231 401.64L88.9475 402.22L86.1034 401.916L84.9989 401.557L84.06 401.06L83.7286 400.342L82.6241 398.713L81.4367 397.609L80.8569 398.492L80.0561 400.398L76.0798 405.616L70.3362 411.388L67.8787 413.017L65.1726 413.68L63.3501 415.033L62.1903 418.208L61.2239 421.743L60.0089 424.255L57.7446 425.415L51.8354 426.713L50.0405 427.956L48.1628 430.082L43.4409 433.119L41.5632 434.804L41.2043 435.604L41.011 437.372L40.8177 437.952L40.155 438.449L38.9124 438.697L38.4153 438.973L21.737 454.851L19.9145 456.701L21.1295 459.103L21.5989 461.809L22.4273 464.35L24.6363 466.2L27.2872 466.725L32.727 467.028L35.1018 468.271L31.1531 469.375L27.4529 467.967L24.1393 467.47L21.4884 471.308L20.66 478.736L19.9421 480.89L18.6995 481.884L17.0979 482.381L15.4964 483.154L14.2538 485.06L14.9993 485.502L15.8001 486.137L16.6285 486.993L17.4569 488.097L19.0585 491.3L22.234 491.88L23.0348 492.239L23.3385 493.123L23.8632 495.912L24.305 496.519L24.6087 496.768L25.0782 498.01L25.5476 498.507L26.1275 498.563L26.5693 498.204L27.0111 497.762L27.5357 497.541L37.5317 499.474L41.6461 499.612L42.723 500.026L42.8887 501.131L42.4469 504.251L42.9715 505.438L45.153 506.653L45.6776 507.426L45.5396 508.89L44.9873 511.292L44.8768 512.618L45.1806 513.86L45.9814 514.274L47.0031 514.523L48.08 515.241L48.5494 515.986L49.3226 517.781L49.792 518.444L50.6756 518.389L51.6697 517.754L52.4981 517.837L52.8294 519.963L52.2772 522.117L50.7585 523.111L50.3443 525.872L48.2733 528.33L48.8531 529.959L49.1845 530.428L49.5711 530.677L50.4547 530.898L49.9853 531.892L49.8472 532.334V532.969L51.4212 534.101L51.7801 533.466L52.7742 530.815L55.8117 529.296L58.1588 526.949L60.6716 525.485L62.853 526.314L63.8747 525.9L62.7426 524.27L62.2179 522.696L63.4605 521.702L64.924 521.592L65.3935 519.245L63.93 518.72L63.8747 517.201L64.5651 515.904V513.998L65.1173 512.259L64.5098 510.519L63.7367 509.304L63.3501 507.923L63.4329 506.405L64.1233 504.776L65.3382 506.653L65.8077 510.105L66.995 511.044L70.3362 511.348L70.8057 512.783L71.7721 513.115L74.3678 513.474L76.1902 514.164L78.206 515.324L80.0009 516.787L81.2987 518.637L82.348 523.194L83.701 524.077L85.275 524.574L86.6004 525.651L87.7049 523.028L89.0028 523.166L92.2887 526.673L93.2276 526.977H94.2769L95.1329 527.225L95.4643 528.219L95.9889 528.937L98.5569 531.284L99.4406 531.947L100.904 532.416L102.036 532.361L103.859 531.947L105.267 532.168L105.764 532.775L106.013 533.714L106.703 534.957L107.145 535.978L107.227 536.973L107.531 537.746L108.691 538.049H113.882L113.496 537.166L112.695 534.819L112.308 533.908H120.233L118.494 536.669L119.571 537.663L121.614 538.215L122.691 539.623L123.216 539.982L126.308 543.793L127.358 544.539L128.407 544.262L129.429 543.627L132.024 542.744L144.202 536.337L145.969 534.984L146.687 536.779L152.845 535.84L159.665 533.051L165.629 529.545L168.004 527.529L168.915 527.142L169.854 527.059L172.284 527.501L174.355 527.556L176.399 526.921L183.606 523.332L189.128 519.411L193.022 514.33L193.602 513.336L193.823 512.452V512.065L193.905 511.596L194.126 511.071L194.789 510.298L198.544 509.553L199.566 509L200.395 508.255L202.521 505.963L204.785 504.002L205.724 502.76L207.105 500.33L208.458 498.839L210.032 498.038L210.694 497.568L210.998 497.292L211.136 496.712L211.247 495.912L211.523 494.945L211.964 494.089L212.738 493.206H213.428L214.091 493.482L216.907 496.574L217.598 497.209L219.227 498.259L220.028 498.645L220.856 498.922L221.74 499.087L222.706 499.032L241.29 494.117L249.546 489.671L252.225 488.649L253.384 487.849L254.075 487.02L254.268 486.137V485.198L254.213 484.259L253.937 484.48ZM83.0659 533.742L84.5294 533.024L85.0541 532.03L81.8233 530.622L79.6419 530.87L79.78 532.168L78.3717 533.41L78.4545 535.647L76.5768 536.724V539.32L77.1843 539.844L76.8806 540.59L76.8253 541.197L75.4723 541.363L75.2238 542.081L76.8806 543.683L76.0522 545.395L74.5334 544.732L72.3796 548.598L75.1962 547.134L77.4328 546.748L79.9456 543.738L83.3421 541.722L85.8549 540.231L84.2809 536.945L83.0383 533.714L83.0659 533.742ZM68.7347 553.54L67.7958 553.237L66.6361 553.182V554.369L67.0779 554.866L66.6361 555.253L66.7465 555.667L67.1055 555.97L67.8787 555.308L69.2869 554.176L68.7623 553.817V553.568L68.7347 553.54ZM65.283 527.805L66.0838 528.053L66.4704 526.728L65.4763 526.673L65.283 527.805ZM62.4112 540.12L62.4941 541.225L63.3501 539.126L62.7702 539.071L62.4112 540.12ZM75.1409 526.121L73.8707 525.568L73.1252 525.955L74.6991 527.032L75.1133 526.148L75.1409 526.121ZM70.778 545.56L71.3303 545.809L71.6893 545.919L70.3915 545.063L70.778 545.533V545.56Z" stroke="#F5F5F4" stroke-width="1.5" stroke-linecap="round" stroke-linejoin="round"></path>
        <path d="M116.822 457.35V458.03H118.762V457.35H116.822ZM116.822 458.97V459.65H118.762V458.97H116.822ZM111.962 456.42V457.1H116.722V456.42H111.962ZM111.812 460.78C113.282 460.78 115.312 460.76 117.052 460.48L117.002 459.86C115.312 460.06 113.202 460.08 111.722 460.08L111.812 460.78ZM112.862 456.95V460.31H113.662V456.95H112.862ZM115.022 456.95V460.31H115.822V456.95H115.022ZM118.302 455.74V461.32H119.132V455.74H118.302ZM116.162 461.5C114.282 461.5 113.142 462.09 113.142 463.13C113.142 464.17 114.282 464.76 116.162 464.76C118.032 464.76 119.172 464.17 119.172 463.13C119.172 462.09 118.032 461.5 116.162 461.5ZM116.162 462.15C117.532 462.15 118.352 462.51 118.352 463.13C118.352 463.75 117.532 464.12 116.162 464.12C114.792 464.12 113.972 463.75 113.972 463.13C113.972 462.51 114.792 462.15 116.162 462.15ZM126.681 455.73V462.39H127.511V455.73H126.681ZM127.251 458.48V459.17H128.851V458.48H127.251ZM121.881 463.9V464.58H127.921V463.9H121.881ZM121.881 461.71V464.17H122.711V461.71H121.881ZM123.021 456.37C121.671 456.37 120.661 457.3 120.661 458.6C120.661 459.91 121.671 460.83 123.021 460.83C124.371 460.83 125.381 459.91 125.381 458.6C125.381 457.3 124.371 456.37 123.021 456.37ZM123.021 457.1C123.901 457.1 124.571 457.72 124.571 458.6C124.571 459.49 123.901 460.1 123.021 460.1C122.141 460.1 121.471 459.49 121.471 458.6C121.471 457.72 122.141 457.1 123.021 457.1ZM132.96 460.61V462.17H133.78V460.61H132.96ZM129.29 460.16V460.84H137.46V460.16H129.29ZM130.2 461.89V462.56H135.62V464.78H136.45V461.89H130.2ZM130.38 455.95V459.33H136.4V455.95H135.57V456.97H131.2V455.95H130.38ZM131.2 457.62H135.57V458.67H131.2V457.62ZM139.129 459.96V460.64H145.339V459.96H139.129ZM138.099 462.95V463.65H146.289V462.95H138.099ZM141.759 460.25V463.23H142.589V460.25H141.759ZM139.129 456.46V460.26H139.959V457.14H145.249V456.46H139.129Z" fill="#AC122C" style="fill: rgb(172, 18, 44);"></path>
    </g>
    <g id="northHwanghae" style="fill: rgb(243, 203, 188);">
          
          <path fill-rule="evenodd" clip-rule="evenodd" d="M285.002 603.079L286.907 603.134L288.647 602.886L294.225 601.394H295.136L296.075 601.533L296.959 601.892L298.312 602.72L300.079 604.266L300.88 604.791L301.681 605.095L305.408 605.757L307.12 606.475L308.86 607.469L314.88 612.495L316.481 613.544L318.994 613.959L325.538 613.103L326.063 618.653L326.891 621.055L328.051 622.74L328.769 623.485L328.907 623.734L329.404 624.755L329.68 625.446L329.846 626.164L329.929 626.937L329.791 627.986L329.487 629.256L328.686 631.355L327.72 633.26L325.732 635.801L325.069 636.436L324.351 636.905L323.633 637.236L322.915 637.402L317.365 637.789L316.674 637.982L315.957 638.313L315.211 638.866L314.521 639.473L313.858 640.191L313.361 640.909L312.947 641.71L312.781 642.897L312.753 644.388L313.057 647.205L313.085 651.181L312.753 654.191L312.45 655.793L312.118 657.008L310.406 660.1L306.43 666.092L304.304 670.759L303.227 672.222L302.537 672.94L301.073 674.128L299.582 674.984L292.651 677.138L291.905 677.552L291.215 678.049L290.635 678.739L290.249 679.485L290 680.727L289.973 680.948L290.635 682.274L293.148 686.057L293.59 686.995L293.949 688.128L294.087 689.895L293.894 690.999L293.673 691.938L293.397 692.684L292.955 694.285L292.679 695.804L292.623 696.55L292.734 698.786L293.397 701.713L294.253 703.591L302.067 717.287L302.509 718.281L302.619 719.303L303.034 720.187L303.862 721.015L304.58 721.374L305.491 721.65L306.485 722.092L307.535 722.755L308.915 724.08L309.854 724.329L310.489 724.19L311.759 723.141L312.339 722.81L313.002 722.589L313.692 722.561L314.134 723.224L314.245 724.246L313.471 726.455L312.809 727.504L312.339 728.526L312.201 729.327L312.533 730.431L312.836 731.011L313.747 732.309L313.886 733.11L313.803 734.104L313.112 735.678L312.533 737.362L312.864 739.405L314.824 742.167L315.542 742.609V742.636L316.592 743.133L318.525 743.409L318.966 743.989L319.325 744.624L319.601 745.315L320.651 747.11L320.678 747.165L318.304 753.046L316.371 755.283L311.87 758.79L309.826 760.861L299.83 776.159L295.164 779.886L292.154 781.046L289.973 781.267L288.564 782.316L287.957 785.851L288.758 798.608L288.702 798.636L287.404 800.569L286.907 802.833L285.803 802.999L283.318 804.545H283.29L280.087 806.506L278.071 806.036L261.752 795.543L260.813 794.687L257.969 789.8L257.665 789.523V789.496L258.355 788.253L258.576 787.646L258.77 786.762L258.576 785.989L257.858 785.188L257.14 784.636L256.588 783.697L256.395 782.234L256.837 777.512L257.113 776.435L257.417 775.772L257.637 774.916L257.555 773.701L256.754 772.044L256.312 769.669L257.223 767.267L255.925 764.064L256.284 760.253L255.925 759.149L255.318 758.541L254.572 757.575L254.517 756.47L254.931 754.758L255.539 753.82L257.03 752.798L257.665 752.19L258.217 751.555L258.797 751.141L259.322 751.224L259.626 751.693L260.233 753.82L260.537 754.537L261.006 755.117L261.338 755.311L261.862 754.979L262.056 754.151L262.083 752.66L261.724 751.61L260.868 750.009L259.985 747.717L259.239 746.281L258.134 744.79L257.499 744.127L256.809 743.547L256.091 743.133L250.071 740.538L246.703 738.66L244.024 737.555L242.505 737.252L239.882 737.307L234.774 738.384L234.194 738.687L233.503 739.102L229.831 742.139L229.113 742.636L228.367 742.802L227.622 742.719L226.158 742.277H225.413L224.667 742.526L223.949 742.968L223.342 743.575L222.21 745.039L221.216 745.508L219.945 745.701L216.245 744.818L215.141 744.79L214.367 745.094L211.523 746.668L207.188 747.772L206.194 747.827L205.034 747.745L203.212 747.386L202.19 746.806L201.5 746.088L201.168 745.37L200.947 744.624L199.871 738.798L199.456 737.362L198.794 736.506L195.535 733.772L194.652 732.695L194.044 731.674L193.934 730.928L193.713 730.183L192.277 728.332L191.697 726.841L191.117 725.958L190.399 725.626L189.709 725.737L189.129 726.068L188.522 726.51L187.859 726.786L185.236 726.234L184.297 726.317L182.391 727.062L180.679 726.814L180.403 726.289L180.624 725.737L181.149 725.24L181.425 724.881L181.535 724.329L181.342 723.611L180.652 722.837L179.188 721.54L176.841 720.297L176.013 719.441V718.944L176.952 718.337L177.504 717.784L178.001 717.122L178.332 716.404L178.498 715.768L178.36 715.161L178.139 714.719L176.068 712.068L175.764 711.599L175.543 711.047L175.378 710.412L175.157 708.948L175.102 706.573L175.157 705.772L175.295 704.972L175.543 704.199L175.681 703.398L175.571 702.652L174.66 700.664L173.666 698.952L173.334 697.709L172.837 696.467L171.871 694.948L171.457 693.899L171.263 692.96L171.401 689.812L171.374 688.984L171.18 688.183L170.545 686.664L170.407 685.891L170.352 681.804L169.993 679.926L169.386 679.319L170.628 678.932L169.524 677.828L168.171 675.508L167.425 674.763L167.37 674.735L165.906 670.345L165.685 666.479L165.464 665.347L165.05 664.518L162.896 662.337L161.571 660.625L161.046 659.41L160.798 658.471L160.936 656.51L164.388 655.296L172.837 649.662L176.62 647.757L179.741 647.398L187.417 647.812L189.239 648.282L201.03 654.467L201.693 654.964L202.301 655.599L202.798 656.29L203.074 657.035L203.212 657.808L203.074 660.183L203.35 661.011L203.985 661.729L208.486 663.883L210.474 665.181L215.085 667.224L218.095 667.887L219.835 667.721L222.292 667.197L223.259 666.783L224.115 666.23L224.722 665.54L226.766 662.53L227.373 661.812L228.312 661.094L229.582 660.487L234.111 659.272L234.801 658.885L235.464 658.305L235.878 657.587L236.182 656.869L236.32 656.096L236.237 651.181L236.127 650.408L235.989 649.69L235.74 648.972L235.381 648.254L231.156 642.041L230.77 641.627L230.135 641.13L227.318 639.611L225.91 638.645L225.302 638.01L224.833 637.292L224.502 636.546L224.281 635.773L224.17 635.027L224.143 634.254L224.474 631.162L224.612 630.388L224.861 629.505L225.413 628.566L226.407 627.434L227.042 627.185L227.843 627.986L228.809 628.097L230.107 627.379L230.935 626.44L231.957 625.943L232.509 625.114L233.448 625.031L234.083 625.28L237.701 625.832L238.308 626.053L239.054 627.075L240.407 628.262L240.821 628.787L242.284 629.67L244.438 630.361L245.294 629.919L246.067 629.891L248.415 630.333L249.188 630.582L252.888 632.266L253.661 632.818L254.351 633.177L254.931 633.426L255.981 633.978L264.237 636.767L265.562 636.877L267.44 636.795L268.186 636.16L268.71 635.497L269.014 634.862L269.125 634.337L269.18 633.84V633.233L269.069 632.211L268.821 630.913L268.324 629.422L267.551 627.986L267.413 626.992L267.689 625.832L269.069 624.01L270.036 623.375L270.892 623.181L271.72 623.457L277.519 627.24L279.01 627.489L281.053 627.517L285.306 627.047L286.963 626.384L287.846 625.667L287.708 624.893L287.487 624.258L287.046 623.457L286.162 622.408L285.113 620.889L284.671 620.033L284.312 619.26L283.621 616.83L283.235 616.085L282.738 615.339L280.032 612.605L279.535 611.832L279.148 611.059L278.596 609.458L278.182 608.602L276.608 606.227L276.304 605.454L276.083 604.598L275.945 603.742L275.973 602.609L276.249 601.339L277.05 599.462L278.182 598.412L279.121 598.247L279.949 598.799L281.744 601.174L282.434 601.864L283.235 602.389L284.118 602.83L285.002 603.079Z" stroke="#F5F5F4" stroke-width="1.5" stroke-linecap="round" stroke-linejoin="round"></path>
        <path d="M230.872 690.75V696.87H231.702V690.75H230.872ZM231.352 693.46V694.16H233.022V693.46H231.352ZM228.802 696.99C226.932 696.99 225.842 697.48 225.842 698.38C225.842 699.28 226.932 699.77 228.802 699.77C230.682 699.77 231.772 699.28 231.772 698.38C231.772 697.48 230.682 696.99 228.802 696.99ZM228.802 697.61C230.162 697.61 230.932 697.88 230.932 698.38C230.932 698.88 230.162 699.15 228.802 699.15C227.432 699.15 226.672 698.88 226.672 698.38C226.672 697.88 227.432 697.61 228.802 697.61ZM227.062 694.85V696.09H227.892V694.85H227.062ZM224.752 696.47C226.332 696.47 228.482 696.45 230.402 696.1L230.332 695.52C228.482 695.79 226.262 695.81 224.642 695.81L224.752 696.47ZM224.872 691.52V692.14H230.062V691.52H224.872ZM227.472 692.52C226.192 692.52 225.362 693 225.362 693.8C225.362 694.6 226.192 695.08 227.472 695.08C228.752 695.08 229.572 694.6 229.572 693.8C229.572 693 228.752 692.52 227.472 692.52ZM227.472 693.08C228.282 693.08 228.792 693.36 228.792 693.8C228.792 694.25 228.282 694.52 227.472 694.52C226.662 694.52 226.142 694.25 226.142 693.8C226.142 693.36 226.662 693.08 227.472 693.08ZM227.062 690.67V691.75H227.892V690.67H227.062ZM233.481 692.28V692.96H237.961V692.28H233.481ZM235.721 693.56C234.601 693.56 233.781 694.41 233.781 695.63C233.781 696.84 234.601 697.69 235.721 697.69C236.851 697.69 237.671 696.84 237.671 695.63C237.671 694.41 236.851 693.56 235.721 693.56ZM235.721 694.27C236.421 694.27 236.931 694.83 236.931 695.63C236.931 696.43 236.421 696.99 235.721 696.99C235.031 696.99 234.531 696.43 234.531 695.63C234.531 694.83 235.031 694.27 235.721 694.27ZM240.351 690.74V699.78H241.151V690.74H240.351ZM238.911 694.54V695.23H240.621V694.54H238.911ZM238.421 690.94V699.34H239.201V690.94H238.421ZM235.321 691V692.7H236.141V691H235.321ZM245.96 695.61V697.17H246.78V695.61H245.96ZM242.29 695.16V695.84H250.46V695.16H242.29ZM243.2 696.89V697.56H248.62V699.78H249.45V696.89H243.2ZM243.38 690.95V694.33H249.4V690.95H248.57V691.97H244.2V690.95H243.38ZM244.2 692.62H248.57V693.67H244.2V692.62ZM252.129 694.96V695.64H258.339V694.96H252.129ZM251.099 697.95V698.65H259.289V697.95H251.099ZM254.759 695.25V698.23H255.589V695.25H254.759ZM252.129 691.46V695.26H252.959V692.14H258.249V691.46H252.129Z" fill="#575154" style="fill: rgb(172, 18, 44);"></path>
    </g>
    <g id="kangwon" style="fill: rgb(243, 203, 188);">
          
          <path d="M390.513 590.349V589.714L389.105 589.493L388 589.604L389.436 590.46L390.485 590.377L390.513 590.349ZM400.095 590.073L401.696 589.521L402.608 589.411L402.497 587.975L401.448 587.533L400.592 587.616L400.398 588.085V589.19L399.929 589.99L400.122 590.073H400.095ZM480.781 683.378L487.408 679.927L487.38 679.871L486.883 677.165L486.994 674.487L486.828 672.278L486.8 671.781L485.392 669.075L484.287 668.053L482.299 666.866L481.388 665.982L477.826 660.294L476.362 660.818L471.061 663.718L469.321 664.408L455.376 646.984L446.43 644.83L444.193 642.262L440.244 635.856L438.118 634.586L436.986 634.254L436.102 633.371L435.55 632.183L435.163 629.864L434.694 628.897L434.031 628.456L433.258 628.953L432.181 629.919L431.684 629.339L431.325 627.406L427.349 623.32L425.582 620.752L424.864 618.598L424.091 617.079L420.446 611.888L417.767 607.111L416.552 605.923L414.785 605.675L406.777 605.73L405.12 605.233L403.988 604.046L402.966 602.637L401.641 601.505L398.742 600.621L389.933 601.505L387.586 599.959L385.184 594.16L383.085 594.408V595.347L383.389 596.866L382.892 598.192L380.6 598.55L379.302 597.805L376.844 595.044L375.491 594.436L373.724 593.166L372.509 590.101L371.239 587.312L371.984 583.004L372.951 578.752L374.304 574.748L374.138 573.837L373.641 572.815L373.558 571.987L374.663 571.655L375.464 571.793L376.209 572.18L376.872 572.815L377.479 573.699L378.639 573.036L382.312 572.235L383.085 571.103L382.395 568.645L380.793 568.01L378.915 568.59L377.479 569.667L376.126 568.949L373.31 568.148L371.957 567.458V566.353L377.479 564.282L378.115 563.565L378.943 562.377L377.341 561.659L376.568 561.549H375.795L374.884 561.742L371.957 561.576L366.324 562.35L360.525 561.273L356.659 561.052L350.75 561.991L346.47 561.273L345.586 561.328L344.785 561.549L343.929 561.991L342.991 562.653L341.886 563.675L341.113 564.559L340.533 565.718L340.146 566.989L339.539 571.766L338.738 574.969L338.628 576.018L338.517 577.979L338.296 579L337.772 579.994L336.529 581.071L335.535 581.568L332.083 582.562L331.448 583.391L331.144 584.661L331.531 587.063L332.332 589.631V590.543L332.139 591.564L330.703 592.752L334.458 597.142L334.872 598.081L335.176 599.351L334.845 600.097L334.21 600.732L330.261 602.775L329.35 603.41L327.002 606.862L325.622 613.13L326.146 618.681L326.975 621.083L328.135 622.767L328.825 623.513L328.991 623.761L329.488 624.783L329.764 625.473L329.957 626.191L330.04 626.937L329.902 627.986L329.598 629.256L328.797 631.355L327.831 633.288L325.87 635.828L325.208 636.463L324.49 636.933L323.772 637.264L323.054 637.43L317.504 637.816L316.813 638.01L316.095 638.341L315.35 638.866L314.659 639.501L313.997 640.219L313.5 640.937L313.113 641.71L312.92 642.897V644.388L313.223 647.205V651.181L312.92 654.191L312.616 655.793L312.285 657.008L310.6 660.1L306.624 666.092L304.47 670.759L303.393 672.25L302.703 672.968L301.239 674.155L299.776 675.011L292.845 677.165L292.099 677.58L291.409 678.077L290.829 678.767L290.443 679.512L290.222 680.727V680.948L290.857 682.301L293.37 686.084L293.839 687.023L294.17 688.155L294.308 689.923L294.115 691.027L293.894 691.966L293.59 692.712L293.176 694.313L292.873 695.832L292.817 696.577L292.928 698.814L293.563 701.741L294.446 703.619L302.261 717.315L302.675 718.309L302.786 719.331L303.172 720.214L304.001 721.043L304.719 721.402L305.63 721.678L306.624 722.092L307.673 722.782L309.054 724.08L309.993 724.329L310.628 724.218L311.898 723.169L312.478 722.838L313.141 722.617H313.859L314.3 723.224L314.383 724.273L313.638 726.455L312.947 727.504L312.478 728.554L312.34 729.354L312.699 730.431L313.003 731.011L313.914 732.337L314.052 733.137L313.969 734.131L313.279 735.705L312.699 737.417L313.03 739.433L314.991 742.222L315.681 742.664L316.703 743.161L318.663 743.465L319.105 744.017L319.464 744.652L319.74 745.342L320.79 747.137V747.193L322.419 743.244L323.855 741.394L324.545 740.51L330.951 735.208L338.407 730.542L346.249 727.366L353.787 726.538L357.515 726.924L371.957 725.654L383.057 729.023L386.592 728.692L393.468 726.593L416.055 724.605L417.022 725.268L418.513 727.421L419.949 728.885L421.55 729.299L429.282 727.67L441.57 728.388L449.55 727.753L457.585 724.881L465.069 720.049L471.309 713.504L474.015 709.611L476.28 705.469L477.798 700.857L478.295 695.556L477.301 690.447L477.053 687.824L477.798 685.891L481.001 683.351L480.781 683.378Z" stroke="#F5F5F4" stroke-width="1.5" stroke-linecap="round" stroke-linejoin="round"></path>
        <path d="M381.781 662.74V668.15H382.611V662.74H381.781ZM382.381 665.07V665.77H383.951V665.07H382.381ZM379.281 663.4V663.78C379.281 665.47 377.901 666.83 375.601 667.51L375.951 668.18C378.561 667.41 380.171 665.72 380.171 663.4H379.281ZM376.001 663.4V664.09H379.751V663.4H376.001ZM379.781 668.26C377.981 668.26 376.831 668.92 376.831 670.01C376.831 671.1 377.981 671.76 379.781 671.76C381.571 671.76 382.711 671.1 382.711 670.01C382.711 668.92 381.571 668.26 379.781 668.26ZM379.781 668.92C381.081 668.92 381.911 669.33 381.911 670.01C381.911 670.69 381.081 671.1 379.781 671.1C378.481 671.1 377.651 670.69 377.651 670.01C377.651 669.33 378.481 668.92 379.781 668.92ZM386.96 667.29V669.3H387.79V667.29H386.96ZM390.97 662.74V669.62H391.8V662.74H390.97ZM385.63 670.9V671.58H392.02V670.9H385.63ZM385.63 668.95V671.09H386.46V668.95H385.63ZM384.46 667.6C386.1 667.6 388.29 667.57 390.24 667.26L390.18 666.65C388.26 666.9 386.02 666.92 384.35 666.92L384.46 667.6ZM389.13 668.08V668.69H391.18V668.08H389.13ZM387.29 663.11C385.96 663.11 385.06 663.73 385.06 664.68C385.06 665.64 385.96 666.26 387.29 666.26C388.61 666.26 389.51 665.64 389.51 664.68C389.51 663.73 388.61 663.11 387.29 663.11ZM387.29 663.73C388.13 663.73 388.72 664.1 388.72 664.68C388.72 665.26 388.13 665.63 387.29 665.63C386.44 665.63 385.85 665.26 385.85 664.68C385.85 664.1 386.44 663.73 387.29 663.73ZM394.23 666.96V667.64H400.44V666.96H394.23ZM393.2 669.95V670.65H401.39V669.95H393.2ZM396.86 667.25V670.23H397.69V667.25H396.86ZM394.23 663.46V667.26H395.06V664.14H400.35V663.46H394.23Z" fill="#AC122C" style="fill: rgb(172, 18, 44);"></path>
    </g>
    <g id="chagang" style="fill: rgb(243, 203, 188);">
          
          <path fill-rule="evenodd" clip-rule="evenodd" d="M321.155 198.467L322.618 198.385L325.269 198.909L327.423 200.676V200.704L327.036 201.588L324.91 205.592L323.115 209.789L322.342 214.594L322.425 218.294L322.949 221.745L323.612 224.037L323.805 225.142L323.778 226.467L322.729 228.814L320.934 230.112L318.863 231.134L317.095 232.597L315.908 234.724L315.107 236.518L314.058 237.789L311.959 238.313L308.591 237.816L307.099 238.175L305.774 239.832L305.47 241.793L305.774 244.305L306.492 246.708L307.32 248.365L309.447 250.159L311.518 250.104L315.77 248.144L316.792 247.895L318.062 247.867L319.166 248.309L319.774 249.579L319.553 250.794L317.979 252.479L317.62 253.556L317.951 254.577L320.078 258.14L320.906 260.652L321.514 263.276L322.287 268.688L323.529 271.725L327.45 274.984L328.306 277.414L327.975 278.932L327.478 279.899L327.588 280.921L329.024 282.577L330.212 284.262L330.736 286.167L331.371 290.502L332.835 293.485L335.016 295.445L341.754 299.946L343.3 300.471L346.863 300.857L351.446 302.155L353.02 301.934L355.395 300.443L356.858 298.4L358.018 296.08L359.675 293.788L362.298 291.911L365.695 290.696H369.064L371.604 292.546L372.653 295.445L373.233 299.449L373.454 303.591L373.316 306.905L372.764 312.676L371.107 316.431L365.253 322.948L363.32 327.035L362.436 332.612L363.016 337.969L365.584 341.393L370.058 343.547L371.466 345.397L371.604 348.573L371.052 350.616L370.113 352.301L368.87 353.626L367.434 354.537L362.354 356.139L353.269 361.579L350.784 365.141L349.044 374.198L346.89 377.705L345.427 378.423L340.235 379.113L338.054 379.748L336.342 380.687L334.768 381.985L333.001 383.725L329.439 386.265L326.567 387.811L325.103 390.407L325.849 396.095L325.738 400.431L323.585 403.689L320.74 406.726L318.559 410.371L317.869 412.912L317.372 415.673L317.123 418.49L317.178 420.616H317.04L314.279 426.718L312.512 428.955L308.121 432.683L307.21 433.815L306.658 434.671L305.691 438.123L304.946 440.166L304.117 441.188L303.206 441.685L301.301 441.85L299.589 442.237L298.65 442.596L297.656 443.148L296.109 444.363L294.95 445.633L293.486 447.594L292.52 448.56L291.608 449.168L289.013 449.72L287.991 450.079L286.914 450.687L279.486 456.016L278.133 457.176L277.194 458.253L276.863 459.081L276.614 459.937L276.2 462.892L275.924 464.079L275.234 465.625L274.378 466.398L273.494 466.84L270.015 467.061L268.689 467.669L261.759 472.584L260.295 473.219L259.384 473.191L258.473 472.998L257.672 472.722L252.591 469.187L248.09 467.061L245.77 466.398L234.974 465.073L232.516 464.024L227.325 460.627L225.668 458.943L220.67 452.481L212.938 445.247L209.79 440.994L207.747 438.785L206.808 438.261L206.035 438.15L204.489 438.261L202.915 437.846L201.755 437.101L200.347 435.969L199.297 435.527L198.331 435.389L196.619 435.417L194.935 435.72L193.25 436.493L191.649 437.515L190.71 437.846L189.578 437.929L187.866 437.653L186.733 437.156L185.822 436.549L183.972 434.781L170.331 425.669L166.576 422.135L165.692 421.03L165.25 420.064L165.416 419.208L165.913 418.434L166.493 417.661L166.99 416.888L167.156 416.06L166.99 415.231L166.493 414.458L161.605 409.267L161.219 408.521L160.943 407.748L160.805 406.92L160.832 406.036L161.081 405.208L161.937 403.496L162.185 402.612L162.738 398.277L162.793 398.083L162.931 397.669L164.256 395.515L164.615 394.687L164.891 393.886L165.057 393.058V392.202L164.836 391.401L163.953 389.44L163.759 388.888L163.069 385.381L162.572 384.332L161.854 383.807L160.97 383.78L159.065 384.304L158.043 384.249L156.801 383.807L156 383.089L152.355 378.368L151.223 377.235L150.256 376.49L142 371.685L142.442 369.531L143.325 368.841L145.341 369.2L146.446 368.482L146.832 367.516L146.888 365.362L147.219 364.174L148.323 362.38L149.456 361.496L150.947 361.137L155.807 361.026L157.381 360.364L158.181 358.652L158.402 355.311L158.955 352.273L160.335 351.279L162.047 351.748L163.676 353.157L164.588 354.482L164.809 354.924L171.684 354.786L173.313 353.737L172.209 351.389L168.868 347.303L173.369 341.532L175.826 339.792L176.102 339.599L179.664 338.853L180.714 338.384L181.266 337.362L181.735 336.285L182.481 335.678L183.613 335.595L184.607 335.843L189.605 338.135L190.737 337.969L195.542 334.601L197.006 333.855L198.911 333.579L200.181 334.38L201.562 335.926L202.97 336.975L204.544 336.175L206.256 334.822L209.873 334.38L211.364 333.579L212.248 332.06L211.613 331.315L210.039 331.149L208.161 331.342L209.514 329.078L211.558 328.388L213.794 328.001L215.783 326.538L218.157 322.837L218.875 320.987L218.544 319.607L219.289 318.419L220.228 317.591L221.36 317.011L222.631 316.542L222.299 314.553L223.487 312.952L225.254 311.267L226.607 309.141L224.923 306.242L227.684 303.646L240.938 295.749L242.595 294.285L243.727 292.49L246.654 285.698L248.007 283.986L250.962 281.059L252.26 279.236L254.993 272.775L256.264 270.814L262.035 263.8L265.735 260.984L269.104 261.039L268.745 261.729L268.551 262.309L268.22 262.806L267.502 263.276V264.435L271.534 263.248V259.244L269.932 254.329L269.104 250.408L269.849 248.392L273.908 241.875L275.841 234.806L277.995 230.499L278.409 228.373L277.995 226.329L276.753 224.203L276.808 222.298L280.895 217.935L282.745 214.179L284.622 213.765L288.764 214.014L290.034 213.24L293.79 209.761L295.64 208.657L294.011 207.304L292.326 206.282L290.863 205.095L289.952 203.217L291.967 202.389H293.818L295.557 203.051L297.214 204.266L300.721 208.16L302.737 209.485L303.62 208.077L305.111 204.183L311.656 201.45L313.119 197.308L314.251 195.54L316.764 193.773L319.249 193L320.409 194.16L320.519 197.584L321.155 198.467Z" stroke="#F5F5F4" stroke-width="1.5" stroke-linecap="round" stroke-linejoin="round" style="opacity: 1;"></path>
        <path d="M253.831 365.03V366.5C253.831 368.03 252.741 369.75 251.451 370.38L251.931 371.04C253.341 370.32 254.491 368.38 254.491 366.5V365.03H253.831ZM253.981 365.03V366.5C253.981 368.29 255.071 370.11 256.501 370.82L256.971 370.16C255.661 369.54 254.641 367.93 254.641 366.5V365.03H253.981ZM251.771 364.66V365.36H256.641V364.66H251.771ZM257.711 363.74V372.78H258.551V363.74H257.711ZM258.351 367.39V368.09H260.031V367.39H258.351ZM266.58 363.74V369.15H267.41V363.74H266.58ZM267.18 366.07V366.77H268.75V366.07H267.18ZM264.08 364.4V364.78C264.08 366.47 262.7 367.83 260.4 368.51L260.75 369.18C263.36 368.41 264.97 366.72 264.97 364.4H264.08ZM260.8 364.4V365.09H264.55V364.4H260.8ZM264.58 369.26C262.78 369.26 261.63 369.92 261.63 371.01C261.63 372.1 262.78 372.76 264.58 372.76C266.37 372.76 267.51 372.1 267.51 371.01C267.51 369.92 266.37 369.26 264.58 369.26ZM264.58 369.92C265.88 369.92 266.71 370.33 266.71 371.01C266.71 371.69 265.88 372.1 264.58 372.1C263.28 372.1 262.45 371.69 262.45 371.01C262.45 370.33 263.28 369.92 264.58 369.92ZM270.23 367.96V368.64H276.44V367.96H270.23ZM269.2 370.95V371.65H277.39V370.95H269.2ZM272.86 368.25V371.23H273.69V368.25H272.86ZM270.23 364.46V368.26H271.06V365.14H276.35V364.46H270.23Z" fill="#AC122C" style="fill: rgb(172, 18, 44);"></path>
    </g>
    <g id="southHwanghae" style="fill: rgb(243, 203, 188);">
          
          <path d="M115.705 799.878H115.153L113.082 800.679L110.79 802.391L110.183 802.805L110.348 803.606L110.928 804.876L111.922 804.71L113.745 803.164L115.319 801.535L115.926 801.397L116.23 801.093L116.064 800.43L115.733 799.906L115.705 799.878ZM97.2045 797.338L96.9007 798.249L97.1769 798.967L97.094 799.271L96.9836 799.878L96.6246 800.016L95.8791 799.657L95.0507 799.436L94.4432 799.823L93.9461 800.403L93.3939 800.762V801.452L94.2499 801.866H95.5201L96.6522 801.452L97.9224 800.099H98.2814H98.5299L98.8613 799.022L98.4195 797.559L97.2045 797.31V797.338ZM72.5735 765.168L73.0153 765.389V763.898L72.5183 764.285L72.5735 765.141V765.168ZM88.6168 783.752L88.4511 784.249L88.672 785.16L88.7825 785.74L89.5832 785.547L89.6937 784.304L89.0586 783.641L88.6168 783.752ZM72.822 695.196L75.0311 696.936L77.4058 697.958L82.4314 699.366L82.0172 697.737L80.0291 694.257L79.2835 693.098L77.9305 692.325L76.0251 691.662L75.4177 690.281L74.0094 690.585L69.5913 693.457L69.0942 695.914L70.1711 697.24L72.822 695.169V695.196ZM119.903 809.018L119.157 809.294L118.715 809.349L119.93 810.15L121.145 811.586L121.504 811.476L121.421 810.951L121.228 810.426L121.725 809.405L119.903 809.018ZM200.174 805.649L199.18 806.45L198.462 805.898L197.882 806.505L197.579 807.472L198.241 807.748L199.484 807.278L201.03 806.229L201.417 805.704V805.097L201.03 805.539L200.174 805.677V805.649ZM132.108 807.665L128.656 809.211L127.883 809.322L127.413 809.598L127.248 810.04L126.944 810.205H126.309L126.033 811.531L125.729 812.525L124.542 812.028L122.885 812.856L119.406 816.998L120.068 818.103L122.471 817.578L124.127 816.446L125.121 815.452L128.214 813.464L130.202 811.42L133.129 807.389L132.08 807.693L132.108 807.665ZM261.724 751.638L260.868 750.036L259.984 747.744L259.211 746.308L258.134 744.845L257.472 744.182L256.781 743.602L256.063 743.188L250.044 740.592L246.675 738.687L243.996 737.61L242.478 737.279L239.854 737.362L234.746 738.439L234.138 738.715L233.448 739.157L229.776 742.194L229.058 742.691L228.34 742.857L227.567 742.746L226.103 742.304H225.357L224.612 742.553L223.894 742.995L223.286 743.63L222.127 745.093L221.133 745.563L219.862 745.756L216.162 744.873H215.058L214.285 745.176L211.44 746.75L207.105 747.855L206.139 747.938L204.979 747.855L203.156 747.496L202.135 746.916L201.444 746.226L201.113 745.508L200.865 744.762L199.815 738.936L199.373 737.5L198.711 736.644L195.48 733.91L194.596 732.805L193.989 731.811L193.906 731.066L193.685 730.32L192.249 728.47L191.669 726.979L191.089 726.095L190.399 725.792L189.709 725.875L189.101 726.206L188.494 726.648L187.831 726.924L185.208 726.372L184.297 726.454L182.391 727.172L180.679 726.924L180.376 726.399L180.596 725.847L181.121 725.35L181.397 724.991L181.535 724.439L181.342 723.721L180.652 722.948L179.188 721.65L176.841 720.435L176.04 719.579V719.082L176.951 718.474L177.504 717.922L178.001 717.259L178.332 716.541L178.498 715.906L178.36 715.326L178.139 714.857L176.068 712.206L175.764 711.737L175.543 711.212L175.378 710.577L175.157 709.141L175.101 706.766L175.157 705.965L175.295 705.165L175.571 704.391L175.709 703.618L175.598 702.873L174.687 700.885L173.693 699.173L173.362 697.902L172.865 696.687L171.898 695.141L171.484 694.119L171.291 693.181L171.456 690.033V689.232L171.208 688.431L170.573 686.912L170.435 686.139L170.38 682.052L170.021 680.175L169.413 679.54L168.336 679.871L165.105 679.181L162.261 677.551L160.991 675.48L160.66 674.486L159.804 673.327L158.672 672.333L157.512 671.918L156.987 672.692L156.656 674.293L156.048 675.729L154.64 675.95L153.922 675.177L153.591 672.36L153.038 670.924L147.847 667.776L146.494 668.273L145.914 669.378L145.721 670.455L145.417 670.952L143.981 670.759L141.303 669.958L140.198 669.847L136.912 669.682L134.206 670.841L132.411 672.084L131.141 673.603L130.147 674.127L128.932 675.37L126.226 674.431L124.983 673.354L124.072 673.437L121.283 675.232L119.488 675.48L117.5 676.005L116.34 675.287L115.816 673.851L114.739 673.409L114.546 675.398L115.153 677.551L114.711 678.711L112.005 679.153L111.039 676.999L109.796 674.569L108.139 673.962L107.339 675.315L107.559 677.11L108.443 678.904L109.741 680.175L109.382 682.384L109.437 685.2L108.664 686.829L105.709 684.841L103.003 686.277L100.49 688.597L98.6956 686.609L98.0605 685.173L97.0664 685.449L95.7134 686.332L93.3939 684.979L91.7923 685.062L91.4333 686.222L93.173 687.741L93.3386 688.928L93.0901 690.198L92.8692 691.966L93.311 693.457L95.4096 695.086L96.1552 696.605L95.6029 699.145L93.9185 702.79L91.958 706.104L90.4945 707.733L90.743 705.524L90.4393 704.474L89.7765 704.281L88.8929 704.64L87.5122 706.186L86.0764 710.66L85.248 712.372L80.0843 720.407L79.5873 721.926L78.3999 731.342L78.4551 733.827L78.7036 734.987L80.3604 736.92L83.7016 739.239L89.8594 738.301L92.8416 739.543L85.5793 744.596L84.392 745.121L81.3821 740.344L79.5044 738.991L76.7983 739.543L75.5833 740.813L73.678 744.486L72.822 745.646L67.9345 746.723L67.1337 747.109L66.1948 750.064L63.8477 751.279L58.2975 751.721L55.4809 752.88L54.7354 754.592L55.8951 756.139L69.5637 758.762L74.9758 758.127L77.9581 757.381L79.2559 756.36L80.2776 753.736L82.5695 754.758L86.4353 758.79L95.2992 764.064L96.9284 763.097L102.589 762.048L108.305 759.204L110.183 758.817L111.95 759.149L116.009 760.612L118.135 760.943L122.802 760.888L124.735 761.772L125.757 764.091L123.354 765.361L122.553 770.387L120.068 770.194L119.406 769.255L119.129 767.874L118.66 766.604L117.307 766.052L112.143 767.074L107.311 767.156L106.206 768.233L106.565 771.105L107.228 773.01L107.587 773.452L108.139 773.59L110.597 775.827L111.895 776.352L113.22 776.158L114.518 775.164L115.374 776.269L114.269 777.843L112.916 778.754L111.287 779.196L109.41 779.306L107.311 778.92L104.218 776.987L102.589 776.296L100.987 776.572L98.0053 778.809L96.5418 779.334L94.3603 779.582L92.814 780.411L91.8199 781.985L91.3229 784.525L92.4274 784.194L95.2992 782.399L94.4984 785.519L95.2716 787.369L97.1769 788.253L99.7725 788.474L101.015 788.833L104.218 791.511L105.516 791.953L112.281 793.058H114.435L116.368 792.45L118.163 791.069L119.461 788.778L120.51 786.044L121.863 783.918L124.183 783.448L123.851 786.127L128.96 788.998L129.871 791.539L128.297 794.245L123.244 797.503L121.808 799.74H129.015L129.54 800.127L129.843 800.817L129.954 801.48L129.871 801.756L132.025 801.176L134.289 799.74L137.962 796.675L136.885 796.178L136.001 795.515L135.256 794.632L134.703 793.527L137.326 792.837L140.585 793.389L143.705 794.797L145.887 796.675L146.052 794.19L143.898 792.036L140.944 790.407L138.68 789.495L139.977 788.778L141.358 788.501H144.368L144.147 788.004L143.843 787.066L143.484 786.486L145.969 785.271L147.074 786.127L148.096 787.673L150.36 788.501L153.508 789.137L153.342 790.71L149.891 794.576L150.774 796.15L152.017 797.255L153.591 797.531L155.551 796.703L155.165 800.486L152.928 801.176L147.157 799.74L144.699 800.292L141.91 801.728L139.453 803.689L137.989 805.787L140.088 806.588L144.119 805.842L145.942 806.892L139.563 809.819L136.443 808.88L134.676 812.276L133.074 819.925L134.538 821.499L136.194 820.836L137.492 818.848L138.044 816.391L138.983 815.479L141.137 815.093L145.252 814.982L149.449 813.298L151.354 809.902L152.818 806.229L155.634 803.661L154.806 806.036L155.8 807.168L157.318 807.472L158.119 807.334L158.478 805.649L159.417 804.904L160.715 804.986L162.151 805.76L161.875 806.229V806.395L161.764 806.533L161.267 806.864L162.289 807.886L163.338 808.466L164.47 808.742L165.741 808.797L166.514 808.217V806.919L166.155 804.766L165.464 803.136L165.243 802.17L165.741 801.756L168.088 801.701L168.861 801.121L169.33 799.74L168.585 799.353L166.873 797.614L168.999 794.77L168.474 791.484L167.37 788.004L167.729 784.58L169.468 786.016L170.821 787.452L172.202 788.446L174.08 788.529L176.013 787.949L177.642 787.093L179.105 785.961L180.514 784.58L179.713 783.476L178.802 784.249L177.918 784.58H175.736L176.758 782.426L178.139 780.521L176.924 779.803L175.764 779.693L174.577 780.024L173.362 780.549L174.19 777.649L173.03 776.821L168.971 777.401L166.707 776.6L163.78 774.64L161.626 772.154L161.709 769.752L163.808 768.703L166.762 768.758L169.717 769.448L174.411 771.685L176.51 772.127L181.37 772.375L182.502 772.762L184.545 774.087L185.76 774.391L187.527 774.557L188.08 775.137L187.831 777.925L187.914 779.61L188.218 780.714L188.936 781.294L191.697 781.902L192.415 782.979L192.94 784.442L198.794 793.582L200.671 795.653L201.831 796.537L202.466 796.675L203.212 796.592L204.675 796.785L205.835 797.227L207.16 797.945L208.431 798.856L209.397 799.823L209.093 797.697L208.016 793.693L207.795 792.174L206.884 791.539L205.227 789.965L204.482 788.087L206.277 786.568L207.492 787.093L209.369 788.612L211.109 790.517L211.882 792.174L212.517 795.129L214.091 795.211L217.571 792.699L217.902 799.491L218.399 802.805L219.476 803.247L221.215 803.081L222.375 805.898L223.949 811.89L229.555 812.994L229.914 811.917L230.273 809.846L230.383 807.831L229.72 806.257L228.92 803.164L228.561 800.872L228.312 800.32L228.478 799.85L229.527 798.746L231.902 797.144L234.415 796.592L238.75 796.73L241.401 796.426L243.748 795.57L252.915 790.655L255.345 789.882L257.582 789.551L258.051 789.965L258.742 788.695L258.963 788.087L259.128 787.231L258.935 786.458L258.217 785.657L257.499 785.105L256.919 784.138L256.726 782.675L257.168 777.953L257.444 776.876L257.748 776.213L257.941 775.33L257.858 774.142L257.057 772.486L256.616 770.111L257.554 767.681L256.257 764.478L256.616 760.667L256.257 759.563L255.649 758.955L254.904 757.989L254.848 756.912L255.235 755.172L255.842 754.233L257.334 753.212L257.969 752.604L258.521 751.969L259.101 751.555L259.625 751.638L259.929 752.107L260.564 754.261L260.868 754.979L261.337 755.559L261.669 755.752L262.193 755.421L262.387 754.592V753.101L262.055 752.052L261.724 751.638ZM184.02 800.734L182.861 801.203L182.308 802.308L182.585 802.971L183.744 803.247L184.241 802.391L184.186 801.314L184.02 800.734ZM133.654 803.854L133.82 803.247L134.372 802.777L135.78 801.203L134.758 801.038L134.123 801.977L133.019 802.722L132.246 804.324V805.566L132.439 804.821L132.798 804.241L133.654 803.882V803.854ZM169.303 812.332L169.744 812.552L169.662 811.917L169.33 812.304L169.303 812.332Z" stroke="#F5F5F4" stroke-width="1.5" stroke-linecap="round" stroke-linejoin="round"></path>
        <path d="M135.872 733.75V739.87H136.702V733.75H135.872ZM136.352 736.46V737.16H138.022V736.46H136.352ZM133.802 739.99C131.932 739.99 130.842 740.48 130.842 741.38C130.842 742.28 131.932 742.77 133.802 742.77C135.682 742.77 136.772 742.28 136.772 741.38C136.772 740.48 135.682 739.99 133.802 739.99ZM133.802 740.61C135.162 740.61 135.932 740.88 135.932 741.38C135.932 741.88 135.162 742.15 133.802 742.15C132.432 742.15 131.672 741.88 131.672 741.38C131.672 740.88 132.432 740.61 133.802 740.61ZM132.062 737.85V739.09H132.892V737.85H132.062ZM129.752 739.47C131.332 739.47 133.482 739.45 135.402 739.1L135.332 738.52C133.482 738.79 131.262 738.81 129.642 738.81L129.752 739.47ZM129.872 734.52V735.14H135.062V734.52H129.872ZM132.472 735.52C131.192 735.52 130.362 736 130.362 736.8C130.362 737.6 131.192 738.08 132.472 738.08C133.752 738.08 134.572 737.6 134.572 736.8C134.572 736 133.752 735.52 132.472 735.52ZM132.472 736.08C133.282 736.08 133.792 736.36 133.792 736.8C133.792 737.25 133.282 737.52 132.472 737.52C131.662 737.52 131.142 737.25 131.142 736.8C131.142 736.36 131.662 736.08 132.472 736.08ZM132.062 733.67V734.75H132.892V733.67H132.062ZM138.481 735.28V735.96H142.961V735.28H138.481ZM140.721 736.56C139.601 736.56 138.781 737.41 138.781 738.63C138.781 739.84 139.601 740.69 140.721 740.69C141.851 740.69 142.671 739.84 142.671 738.63C142.671 737.41 141.851 736.56 140.721 736.56ZM140.721 737.27C141.421 737.27 141.931 737.83 141.931 738.63C141.931 739.43 141.421 739.99 140.721 739.99C140.031 739.99 139.531 739.43 139.531 738.63C139.531 737.83 140.031 737.27 140.721 737.27ZM145.351 733.74V742.78H146.151V733.74H145.351ZM143.911 737.54V738.23H145.621V737.54H143.911ZM143.421 733.94V742.34H144.201V733.94H143.421ZM140.321 734V735.7H141.141V734H140.321ZM153.48 733.74V738.85H154.31V733.74H153.48ZM154.09 735.81V736.5H155.65V735.81H154.09ZM148.61 739.34V742.66H154.31V739.34H148.61ZM153.5 740.01V741.98H149.43V740.01H153.5ZM147.73 734.19V737.81H148.56V734.19H147.73ZM147.73 737.47V738.17H148.44C149.79 738.17 151.14 738.08 152.67 737.76L152.57 737.08C151.09 737.38 149.74 737.47 148.44 737.47H147.73ZM157.129 737.96V738.64H163.339V737.96H157.129ZM156.099 740.95V741.65H164.289V740.95H156.099ZM159.759 738.25V741.23H160.589V738.25H159.759ZM157.129 734.46V738.26H157.959V735.14H163.249V734.46H157.129Z" fill="#AC122C" style="fill: rgb(172, 18, 44);"></path>
    </g>
    <g id="pyongang" style="fill: rgb(243, 203, 188);">
          
          <path fill-rule="evenodd" clip-rule="evenodd" d="M194.789 599.379L195.48 599.296L195.783 599.075L195.949 598.799L196.004 598.495L195.977 597.529L195.59 595.209L195.535 594.574L195.562 593.939L195.618 593.635L195.894 592.503L196.28 591.509L196.556 591.067L197.274 590.101L198.13 589.272L198.572 588.941L199.042 588.748L201.251 588.223L201.831 588.168L202.438 588.278L203.239 588.554L204.15 588.996L205.144 590.045L206.967 592.282L207.464 592.696L212.075 591.813L213.4 591.233L213.815 590.791L214.146 590.57L214.339 590.294L214.477 590.045L214.643 589.465L214.892 588.886L215.113 588.609L215.361 588.389L215.665 588.306L215.969 588.278L216.907 588.444L217.57 588.665L218.122 589.162L218.785 589.99L219.945 591.978L220.359 592.945L220.635 593.69L220.718 594.436L220.828 594.767L220.967 595.099L221.16 595.402L221.491 595.706L221.961 595.955L222.899 596.093L226.821 595.872L227.4 596.286L229.941 598.882L231.294 599.986L231.57 600.014L232.26 600.041L235.795 599.6L236.899 599.627L237.562 599.793L237.949 600.29L238.363 601.091L238.943 603.051L239.053 604.045L239.026 604.901L238.777 605.674L238.667 606.365L238.749 607.276L238.832 607.773L238.97 608.27L239.329 609.181L240.627 610.921L243.554 613.903L244.3 614.4L249.298 615.339L250.098 615.615L250.43 615.864L250.954 616.72L253.937 623.347L254.02 623.485L254.655 624.589L255.373 626.219L255.676 628.014L255.98 633.978L254.931 633.426L254.351 633.177L253.661 632.818L252.887 632.266L249.187 630.582L248.414 630.333L246.067 629.891L245.294 629.919L244.438 630.361L242.284 629.67L240.82 628.787L240.406 628.262L239.053 627.075L238.308 626.053L237.7 625.832L234.083 625.28L233.448 625.031L232.509 625.114L231.957 625.943L230.935 626.44L230.106 627.378L228.809 628.096L227.842 627.986L227.041 627.185L226.406 627.434L225.412 628.566L224.86 629.505L224.611 630.388L224.473 631.161L224.142 634.254L224.17 635.027L224.28 635.773L224.501 636.546L224.832 637.292L225.302 638.01L225.909 638.645L227.318 639.611L230.134 641.13L230.769 641.627L231.156 642.041L235.381 648.254L235.74 648.972L235.988 649.69L236.126 650.408L236.237 651.181L236.319 656.096L236.181 656.869L235.878 657.587L235.463 658.305L234.801 658.885L234.11 659.272L229.582 660.487L228.312 661.094L227.373 661.812L226.765 662.53L224.722 665.54L224.114 666.23L223.258 666.782L222.292 667.197L219.834 667.721L218.095 667.887L215.085 667.224L210.473 665.181L208.485 663.883L203.984 661.729L203.349 661.011L203.073 660.183L203.211 657.808L203.073 657.035L202.797 656.289L202.3 655.599L201.692 654.964L201.03 654.467L189.239 648.282L187.416 647.812L179.74 647.398L176.62 647.757L172.837 649.662L164.387 655.295L160.935 656.51L160.079 653.832L159.389 653.197L158.284 652.506L156.793 651.733L155.993 651.071L155.385 650.242L155.081 649.276L154.75 647.785V646.68L154.971 645.686L155.33 644.968L155.855 644.416L156.462 643.974L160.079 642.704L161.294 641.903L161.874 640.964L162.454 639.583L164.304 632.791L164.359 631.852L164.332 631.161L163.559 628.566L162.924 627.158L162.095 625.998L161.515 623.733L160.935 615.367L160.991 614.787L161.156 614.152L161.35 613.71L161.819 613.02L170.296 606.171L170.517 606.061L170.959 605.757L171.428 605.288L171.566 605.039L171.594 604.763L171.566 604.515L171.484 604.321L171.373 604.156L170.931 603.797L170.02 603.3L168.225 601.947L168.032 601.726L167.866 601.394L167.811 601.091L167.839 600.759L167.977 599.876L168.087 599.6L168.557 597.252L168.639 596.645L168.612 595.844L168.557 595.347L168.446 594.795L167.286 591.536L166.32 589.769L166.127 589.245L166.099 588.665L166.154 588.03L166.209 587.753L166.32 587.505L166.43 587.284L167.01 586.566L167.452 586.235L172.284 584.578L175.791 582.231L176.647 581.375L177.061 581.099L177.559 580.905L178.111 580.795L178.829 581.154L179.878 581.844L183.495 585.047L183.633 585.241L184.103 586.124L184.241 586.318L185.097 587.864L185.511 588.471L185.898 588.83L186.312 589.106L187.002 589.41L190.564 590.404L190.923 590.68L191.338 591.095L192 592.033L192.304 592.531L192.525 592.945L192.884 593.966L193.519 596.203L193.767 597.777L193.906 598.329L194.209 599.075L194.43 599.268L194.789 599.379Z" stroke="#F5F5F4" stroke-width="1.5" stroke-linecap="round" stroke-linejoin="round"></path>
        <path d="M203.621 620.35V621.03H205.561V620.35H203.621ZM203.621 621.97V622.65H205.561V621.97H203.621ZM198.761 619.42V620.1H203.521V619.42H198.761ZM198.611 623.78C200.081 623.78 202.111 623.76 203.851 623.48L203.801 622.86C202.111 623.06 200.001 623.08 198.521 623.08L198.611 623.78ZM199.661 619.95V623.31H200.461V619.95H199.661ZM201.821 619.95V623.31H202.621V619.95H201.821ZM205.101 618.74V624.32H205.931V618.74H205.101ZM202.961 624.5C201.081 624.5 199.941 625.09 199.941 626.13C199.941 627.17 201.081 627.76 202.961 627.76C204.831 627.76 205.971 627.17 205.971 626.13C205.971 625.09 204.831 624.5 202.961 624.5ZM202.961 625.15C204.331 625.15 205.151 625.51 205.151 626.13C205.151 626.75 204.331 627.12 202.961 627.12C201.591 627.12 200.771 626.75 200.771 626.13C200.771 625.51 201.591 625.15 202.961 625.15ZM214.06 620.09V620.78H215.63V620.09H214.06ZM214.06 622.01V622.7H215.63V622.01H214.06ZM209.82 619.27C208.46 619.27 207.46 620.15 207.46 621.41C207.46 622.66 208.46 623.53 209.82 623.53C211.18 623.53 212.18 622.66 212.18 621.41C212.18 620.15 211.18 619.27 209.82 619.27ZM209.82 619.97C210.72 619.97 211.37 620.56 211.37 621.41C211.37 622.26 210.72 622.84 209.82 622.84C208.92 622.84 208.27 622.26 208.27 621.41C208.27 620.56 208.92 619.97 209.82 619.97ZM213.48 618.74V624.09H214.31V618.74H213.48ZM211.43 624.38C209.59 624.38 208.46 625.01 208.46 626.07C208.46 627.14 209.59 627.76 211.43 627.76C213.27 627.76 214.4 627.14 214.4 626.07C214.4 625.01 213.27 624.38 211.43 624.38ZM211.43 625.05C212.77 625.05 213.59 625.42 213.59 626.07C213.59 626.72 212.77 627.1 211.43 627.1C210.09 627.1 209.27 626.72 209.27 626.07C209.27 625.42 210.09 625.05 211.43 625.05Z" fill="#100F10" style="fill: rgb(172, 18, 44);"></path>
        <circle cx="188" cy="624" r="4.25" stroke="#7C0E2A" stroke-width="1.5"></circle>
    </g>
    <defs>
      <filter id="filter0_d_3283_2345" x="493.196" y="0.331543" width="272.448" height="451.934" filterUnits="userSpaceOnUse" color-interpolation-filters="sRGB">
      <feFlood flood-opacity="0" result="BackgroundImageFix"></feFlood>
      <feColorMatrix in="SourceAlpha" type="matrix" values="0 0 0 0 0 0 0 0 0 0 0 0 0 0 0 0 0 0 127 0" result="hardAlpha"></feColorMatrix>
      <feOffset></feOffset>
      <feGaussianBlur stdDeviation="16"></feGaussianBlur>
      <feComposite in2="hardAlpha" operator="out"></feComposite>
      <feColorMatrix type="matrix" values="0 0 0 0 0.67451 0 0 0 0 0.0705882 0 0 0 0 0.172549 0 0 0 0.24 0"></feColorMatrix>
      <feBlend mode="normal" in2="BackgroundImageFix" result="effect1_dropShadow_3283_2345"></feBlend>
      <feBlend mode="normal" in="SourceGraphic" in2="effect1_dropShadow_3283_2345" result="shape"></feBlend>
    </filter>
  </defs>
</svg>